<?xml version="1.0" standalone="no"?>
<!DOCTYPE svg PUBLIC "-//W3C//DTD SVG 20010904//EN"
 "http://www.w3.org/TR/2001/REC-SVG-20010904/DTD/svg10.dtd">
<svg version="1.0" xmlns="http://www.w3.org/2000/svg"
 width="1040.000000pt" height="1040.000000pt" viewBox="0 0 1040.000000 1040.000000"
 preserveAspectRatio="xMidYMid meet">
<metadata>
Created by potrace 1.11, written by Peter Selinger 2001-2013
</metadata>
<g transform="translate(0.000000,1040.000000) scale(0.100000,-0.100000)"
fill="#000000" stroke="none">
<path d="M4168 9035 c-2 -1 -48 -5 -103 -9 -55 -3 -109 -7 -120 -10 -11 -2
-54 -7 -95 -11 -41 -3 -82 -8 -90 -10 -8 -3 -33 -7 -55 -10 -48 -6 -71 -10
-196 -36 -52 -11 -104 -21 -115 -23 -10 -2 -66 -16 -124 -31 -385 -98 -799
-263 -1114 -444 -106 -61 -300 -184 -322 -206 -6 -5 -22 -17 -34 -25 -28 -19
-213 -161 -220 -169 -3 -4 -32 -29 -64 -56 -243 -204 -485 -504 -616 -765 -94
-185 -132 -331 -135 -510 -2 -69 0 -129 4 -135 3 -5 7 -20 9 -33 5 -39 42
-125 69 -162 92 -126 221 -179 431 -178 139 0 222 22 317 83 58 37 177 149
223 210 87 116 137 193 234 365 222 389 322 535 498 724 116 125 336 284 510
368 166 81 462 181 600 203 19 3 42 8 50 10 19 5 67 12 145 20 33 4 63 9 66
11 13 7 267 18 439 17 223 0 314 -7 486 -39 490 -89 854 -340 1004 -693 33
-77 65 -177 76 -235 2 -12 8 -43 13 -71 12 -64 12 -282 0 -360 -5 -33 -12 -75
-14 -93 -12 -82 -96 -337 -133 -408 -6 -11 -27 -53 -48 -94 -20 -41 -45 -88
-54 -105 -38 -66 -64 -110 -70 -115 -3 -3 -16 -21 -28 -40 -11 -20 -30 -47
-42 -59 -11 -13 -20 -27 -20 -30 0 -3 -10 -17 -22 -31 -13 -14 -41 -48 -63
-75 -59 -73 -229 -241 -315 -311 -366 -298 -777 -481 -1165 -519 -105 -10
-320 -14 -333 -6 -9 5 -5 23 14 62 15 30 39 82 55 116 15 34 46 99 68 145 84
178 171 367 171 373 0 2 11 28 24 57 33 71 111 256 147 348 16 41 34 84 39 95
36 80 116 329 135 420 37 178 -3 319 -110 392 -100 68 -235 57 -367 -31 -51
-33 -218 -191 -278 -262 -91 -107 -125 -150 -187 -234 -231 -315 -496 -749
-848 -1390 -92 -168 -191 -348 -220 -400 -29 -52 -73 -133 -97 -180 -25 -47
-55 -101 -67 -120 -11 -19 -25 -44 -30 -56 -5 -12 -33 -63 -61 -115 -29 -52
-65 -116 -80 -144 -15 -27 -54 -99 -87 -160 -34 -60 -75 -137 -93 -170 -18
-33 -45 -82 -60 -110 -15 -27 -69 -126 -120 -220 -51 -93 -105 -192 -120 -220
-15 -27 -69 -126 -120 -220 -51 -93 -104 -190 -118 -215 -13 -25 -41 -74 -60
-110 -20 -36 -53 -96 -74 -135 -60 -108 -108 -219 -123 -285 -37 -152 -45
-259 -31 -374 19 -151 95 -277 213 -349 137 -85 361 -100 518 -34 259 109 556
509 771 1039 25 62 51 127 59 143 7 17 29 73 49 125 20 52 41 104 46 115 11
24 125 329 150 400 29 85 81 229 87 245 3 8 7 20 9 25 3 12 59 173 83 240 10
28 47 124 82 213 l64 164 14 -34 c7 -18 24 -67 36 -108 57 -185 181 -520 283
-766 352 -841 798 -1413 1274 -1633 185 -85 325 -112 563 -107 356 8 690 104
1085 312 177 94 514 326 636 439 6 5 35 30 64 55 146 125 267 246 331 333 130
175 194 385 156 516 -41 140 -191 211 -337 158 -98 -36 -170 -95 -287 -237
-127 -154 -323 -323 -498 -429 -178 -108 -450 -222 -600 -251 -76 -14 -98 -19
-132 -25 -16 -4 -111 -9 -213 -12 -208 -7 -288 3 -378 44 -265 120 -561 526
-775 1065 -36 90 -70 179 -75 198 -6 19 -26 89 -46 155 -20 66 -38 129 -40
140 -3 11 -13 57 -24 103 -11 45 -17 84 -13 86 7 4 51 14 96 21 17 3 59 13 94
21 36 9 72 17 81 19 40 8 294 87 385 120 207 75 497 204 661 293 27 15 311
184 339 202 63 40 282 199 320 231 11 10 49 42 85 70 69 56 299 283 366 360
192 222 349 481 454 747 41 105 93 290 104 372 3 25 10 70 15 100 16 97 5 451
-18 581 -80 454 -293 828 -643 1128 -99 85 -153 124 -303 220 -200 128 -553
268 -839 332 -130 29 -109 25 -335 64 -13 2 -58 7 -100 11 -42 3 -85 8 -96 11
-22 5 -581 13 -587 8z"/>
<path d="M8968 3185 c-2 -2 -19 -5 -38 -8 -80 -11 -254 -90 -317 -144 -76 -66
-104 -94 -145 -148 -110 -145 -161 -290 -162 -460 -1 -132 5 -174 39 -257 58
-144 149 -243 285 -312 104 -53 159 -67 259 -67 135 0 241 33 373 117 252 161
404 508 352 807 -16 93 -37 147 -91 229 -108 164 -264 246 -469 246 -45 0 -84
-1 -86 -3z"/>
</g>
</svg>
