<svg width="46" height="46" viewBox="0 0 46 46" fill="none" xmlns="http://www.w3.org/2000/svg">
<path d="M23 12.5C20.45 12.5 18.5 14.45 18.5 17V18.5H27.5V17C27.5 14.45 25.55 12.5 23 12.5Z" fill="url(#paint0_linear_25_110)"/>
<path d="M43.9303 6.26967L43.8778 6.21716L43.816 6.17596C43.5536 6.001 43.225 5.82298 42.8483 5.7602C42.4762 5.69818 42.0936 5.75516 41.7332 5.96417C35.5888 7.93172 29.3108 6.35827 24.5712 1.91061C23.6812 1.0298 22.3189 1.0298 21.4288 1.91061C16.6892 6.35827 10.4112 7.93172 4.26681 5.96417C3.90641 5.75516 3.52385 5.69818 3.1517 5.7602C2.77505 5.82298 2.44642 6.001 2.18397 6.17596L2.12218 6.21716L2.06967 6.26967C1.72099 6.61835 1.25 7.25072 1.25 8C1.25 19.8858 3.86301 27.8864 7.81812 33.5007C11.7484 39.0798 16.9475 42.2208 22.0037 44.4942C22.2143 44.6459 22.4416 44.6985 22.5767 44.721C22.7514 44.7502 22.9161 44.7501 22.9914 44.75L23 44.75L23.0086 44.75C23.0839 44.7501 23.2486 44.7502 23.4233 44.721C23.5584 44.6985 23.7857 44.6459 23.9963 44.4942C29.0525 42.2208 34.2516 39.0798 38.1819 33.5007C42.137 27.8864 44.75 19.8858 44.75 8C44.75 7.25072 44.279 6.61836 43.9303 6.26967ZM15.9801 20.2762L16.25 20.0513V19.7V17C16.25 13.2142 19.2142 10.25 23 10.25C26.7858 10.25 29.75 13.2142 29.75 17V19.7V20.0513L30.0199 20.2762C30.7477 20.8827 31.25 21.871 31.25 23V29C31.25 31.1358 29.6358 32.75 27.5 32.75H18.5C16.3642 32.75 14.75 31.1358 14.75 29V23C14.75 21.871 15.2523 20.8827 15.9801 20.2762Z" fill="url(#paint1_linear_25_110)" stroke="url(#paint2_linear_25_110)" stroke-width="1.5"/>
<path d="M23 23C22.1 23 21.5 23.6 21.5 24.5V27.5C21.5 28.4 22.1 29 23 29C23.9 29 24.5 28.4 24.5 27.5V24.5C24.5 23.6 23.9 23 23 23Z" fill="url(#paint3_linear_25_110)"/>
<defs>
<linearGradient id="paint0_linear_25_110" x1="18.5" y1="15.5" x2="27.5" y2="15.5" gradientUnits="userSpaceOnUse">
<stop offset="0.28125" stop-color="#FF4081"/>
<stop offset="1" stop-color="#6200EA"/>
</linearGradient>
<linearGradient id="paint1_linear_25_110" x1="2" y1="23" x2="44" y2="23" gradientUnits="userSpaceOnUse">
<stop offset="0.28125" stop-color="#FF4081"/>
<stop offset="1" stop-color="#6200EA"/>
</linearGradient>
<linearGradient id="paint2_linear_25_110" x1="2" y1="23" x2="44" y2="23" gradientUnits="userSpaceOnUse">
<stop offset="0.286458" stop-color="#FF4081"/>
<stop offset="1" stop-color="#6200EA"/>
</linearGradient>
<linearGradient id="paint3_linear_25_110" x1="21.5" y1="26" x2="24.5" y2="26" gradientUnits="userSpaceOnUse">
<stop offset="0.28125" stop-color="#FF4081"/>
<stop offset="1" stop-color="#6200EA"/>
</linearGradient>
</defs>
</svg>
