<svg width="40" height="40" viewBox="0 0 40 40" fill="none" xmlns="http://www.w3.org/2000/svg">
<path d="M35.2726 0.363647C28.6748 0.363647 19.5971 5.36394 13.6674 13.4546H9.0908C5.59465 13.4546 3.92513 15.0582 2.54534 17.8182L0.363525 22.1818H4.72716H9.0908L13.4544 26.5455L17.8181 30.9091V35.2727V39.6364L22.1817 37.4546C24.9417 36.0748 26.5453 34.4052 26.5453 30.9091V26.3325C34.636 20.4028 39.6363 11.3251 39.6363 4.72728V0.363647H35.2726ZM28.7272 9.09092C29.932 9.09092 30.909 10.0679 30.909 11.2727C30.909 12.4775 29.932 13.4546 28.7272 13.4546C27.5224 13.4546 26.5453 12.4775 26.5453 11.2727C26.5453 10.0679 27.5224 9.09092 28.7272 9.09092ZM7.99989 27.6364L6.90898 28.7273C4.72716 30.9091 4.72716 35.2727 4.72716 35.2727C4.72716 35.2727 8.84993 35.5136 11.2726 33.0909L12.3635 32L7.99989 27.6364Z" fill="url(#paint0_linear_25_79)"/>
<defs>
<linearGradient id="paint0_linear_25_79" x1="0.363525" y1="20" x2="39.6363" y2="20" gradientUnits="userSpaceOnUse">
<stop offset="0.229167" stop-color="#FF4685"/>
<stop offset="0.770833" stop-color="#6200EA"/>
</linearGradient>
</defs>
</svg>
