<svg width="45" height="47" viewBox="0 0 45 47" fill="none" xmlns="http://www.w3.org/2000/svg">
<path d="M18.7621 43.3923L5.77169 35.8923C4.99227 35.4423 4.17266 35.6619 3.72266 36.4414C3.27266 37.2208 3.49227 38.0404 4.27169 38.4904L17.2621 45.9904C18.0415 46.4404 18.8611 46.2208 19.3111 45.4414C19.7611 44.6619 19.5415 43.8423 18.7621 43.3923Z" fill="url(#paint0_linear_25_101)"/>
<path d="M34.7476 30.1049L32.541 7.52675L25.416 19.8676C26.6749 21.2872 26.8891 23.3162 25.9141 25.0049C24.6391 27.2133 21.9754 27.927 19.767 26.652C17.5586 25.377 16.8449 22.7133 18.1199 20.5049C19.0949 18.8162 20.9591 17.9872 22.818 18.3676L29.943 6.02675L9.28643 15.4049C8.59672 15.6995 8.35162 16.424 8.44133 17.1687C9.62912 22.0114 9.58749 27.1835 8.00172 32.3301C7.75662 33.0546 8.05124 33.7443 8.70076 34.1193L18.9632 40.0443C19.6127 40.4193 20.3573 40.3296 20.8622 39.7551C24.5264 35.8085 29.0598 33.0564 33.7726 31.7937C34.4623 31.499 34.8373 30.8495 34.7476 30.1049Z" fill="url(#paint1_linear_25_101)"/>
<defs>
<linearGradient id="paint0_linear_25_101" x1="3.72266" y1="36.4414" x2="19.3111" y2="45.4414" gradientUnits="userSpaceOnUse">
<stop stop-color="#FF4081"/>
<stop offset="0.78125" stop-color="#6200EA"/>
<stop offset="1" stop-color="#623AA8"/>
</linearGradient>
<linearGradient id="paint1_linear_25_101" x1="9.53862" y1="14.4247" x2="35.5274" y2="29.4293" gradientUnits="userSpaceOnUse">
<stop stop-color="#FF4081"/>
<stop offset="0.78125" stop-color="#6200EA"/>
<stop offset="1" stop-color="#623AA8"/>
</linearGradient>
</defs>
</svg>
