<svg width="48" height="48" viewBox="0 0 48 48" fill="none" xmlns="http://www.w3.org/2000/svg">
<circle cx="16" cy="32" r="11" fill="url(#paint0_linear_25_84)"/>
<path d="M43 15.5C43 21.8513 40.5751 28 34.5 28C34 22.5 30.5 15.5 20 14C20 7.64873 25.9249 4 32 4C38.0751 4 43 9.14873 43 15.5Z" fill="url(#paint1_linear_25_84)"/>
<path d="M12 12L16 8M16 8L12 4M16 8H12C7.58172 8 4 11.5817 4 16M36 36L32 40M32 40L36 44M32 40H36C40.4182 40 44 36.4182 44 32M20.378 13C21.7102 7.82432 26.4084 4 32 4C38.6274 4 44 9.37258 44 16C44 21.5914 40.1758 26.2898 35.0002 27.622M28 32C28 38.6274 22.6274 44 16 44C9.37258 44 4 38.6274 4 32C4 25.3726 9.37258 20 16 20C22.6274 20 28 25.3726 28 32Z" stroke="url(#paint2_linear_25_84)" stroke-width="3" stroke-linecap="round" stroke-linejoin="round"/>
<defs>
<linearGradient id="paint0_linear_25_84" x1="6.5" y1="39.5" x2="46.5" y2="13.5" gradientUnits="userSpaceOnUse">
<stop stop-color="#FF4383"/>
<stop offset="1" stop-color="#6200EA"/>
</linearGradient>
<linearGradient id="paint1_linear_25_84" x1="21.5" y1="35" x2="39.0045" y2="9.18103" gradientUnits="userSpaceOnUse">
<stop stop-color="#FF4383"/>
<stop offset="1" stop-color="#6200EA"/>
</linearGradient>
<linearGradient id="paint2_linear_25_84" x1="4" y1="44" x2="49" y2="4" gradientUnits="userSpaceOnUse">
<stop offset="0.0833333" stop-color="#FF4383"/>
<stop offset="0.869792" stop-color="#6200EA"/>
</linearGradient>
</defs>
</svg>
