<svg width="48" height="48" viewBox="0 0 48 48" fill="none" xmlns="http://www.w3.org/2000/svg">
<path d="M24.0001 23.4518C26.3186 23.4518 28.1982 21.5723 28.1982 19.2537C28.1982 16.9352 26.3186 15.0557 24.0001 15.0557C21.6815 15.0557 19.802 16.9352 19.802 19.2537C19.802 21.5723 21.6815 23.4518 24.0001 23.4518Z" fill="url(#paint0_linear_25_118)"/>
<path d="M36.2789 18.6038C38.5974 18.6038 40.477 16.7243 40.477 14.4057C40.477 12.0872 38.5974 10.2076 36.2789 10.2076C33.9604 10.2076 32.0808 12.0872 32.0808 14.4057C32.0808 16.7243 33.9604 18.6038 36.2789 18.6038Z" fill="url(#paint1_linear_25_118)"/>
<path d="M11.6337 32.771C12.6172 32.7738 13.5999 32.7179 14.5766 32.6035C14.6198 32.4864 14.6726 32.3755 14.7206 32.2608C14.7686 32.146 14.8166 32.0246 14.8689 31.9089C14.9649 31.702 15.0681 31.5014 15.1761 31.3022C15.2275 31.2062 15.275 31.1102 15.3293 31.0142C15.4896 30.7406 15.6609 30.4742 15.8457 30.2179C15.8549 30.2044 15.863 30.19 15.8721 30.1771C16.068 29.9083 16.2782 29.6515 16.499 29.4033C16.5691 29.3251 16.643 29.2526 16.7174 29.1763C16.8739 29.0112 17.0328 28.8489 17.2003 28.6963C17.2929 28.6108 17.3923 28.5302 17.4883 28.4481C17.6467 28.3132 17.8075 28.1817 17.9745 28.0564C18.0806 27.9768 18.1881 27.9 18.2971 27.8246C18.4675 27.707 18.6422 27.5956 18.8198 27.4886C18.9321 27.4209 19.0435 27.3532 19.1558 27.2899C19.2105 27.2596 19.2614 27.2246 19.3166 27.1939C18.4303 25.5268 17.0201 24.1977 15.3036 23.4114C13.587 22.6251 11.6595 22.4254 9.81822 22.843C7.97694 23.2606 6.32418 24.2723 5.11482 25.7222C3.90546 27.1721 3.20667 28.9795 3.12622 30.8659C3.91534 31.3747 6.54574 32.771 11.6337 32.771Z" fill="url(#paint2_linear_25_118)"/>
<path d="M36.2789 22.6306C34.7177 22.6303 33.1859 23.055 31.8476 23.859C30.5094 24.6629 29.4152 25.816 28.6824 27.1945C28.715 27.2117 28.7453 27.2319 28.7784 27.2492C28.8581 27.2924 28.9353 27.3399 29.0141 27.385C29.1864 27.4844 29.3558 27.5881 29.5219 27.6975C29.6059 27.7532 29.6889 27.8093 29.771 27.8674C29.9342 27.9826 30.0931 28.1031 30.251 28.2284C30.3221 28.285 30.395 28.3393 30.4637 28.3978C30.6835 28.5836 30.8985 28.7765 31.104 28.982C31.2398 29.1178 31.3713 29.2585 31.499 29.4015C31.5427 29.4495 31.584 29.5023 31.6267 29.5522C31.7093 29.6482 31.7913 29.7442 31.8701 29.8441C31.9181 29.9045 31.9632 29.9665 32.0093 30.0274C32.0789 30.1196 32.148 30.2117 32.2147 30.3063C32.2627 30.3725 32.3059 30.4402 32.351 30.5074C32.4129 30.6005 32.4744 30.6937 32.5329 30.7887C32.5761 30.8585 32.6184 30.9287 32.6597 30.9994C32.7163 31.0954 32.771 31.1914 32.8243 31.2874C32.8632 31.3594 32.9016 31.4314 32.9385 31.5039C32.9899 31.6033 33.0384 31.7041 33.0864 31.8053C33.1205 31.8783 33.155 31.9493 33.1877 32.0242C33.2357 32.1293 33.2774 32.2359 33.3201 32.3429C33.3489 32.414 33.3782 32.4869 33.4051 32.5565C33.4128 32.5772 33.4224 32.5973 33.4301 32.6185L33.5352 32.6305C33.916 32.6714 34.3057 32.7034 34.7045 32.7265C34.7736 32.7303 34.8441 32.7327 34.9137 32.7361C35.3337 32.7562 35.759 32.7697 36.1939 32.7697C36.5529 32.7697 36.8971 32.761 37.2326 32.7481C37.3401 32.7437 37.4429 32.737 37.5485 32.7317C37.7736 32.7197 37.9958 32.7068 38.2104 32.6895C38.3237 32.6809 38.4345 32.6708 38.5464 32.6607C38.7489 32.6415 38.9462 32.6204 39.1382 32.5973C39.2385 32.5853 39.3393 32.5738 39.4368 32.5609C39.648 32.5321 39.8515 32.5009 40.0507 32.4682C40.1165 32.4572 40.1856 32.4476 40.2499 32.4365C40.5088 32.3911 40.7568 32.3431 40.9939 32.2925C41.0472 32.281 41.0961 32.2685 41.148 32.2565C41.3304 32.2153 41.508 32.173 41.676 32.1293C41.7499 32.1101 41.82 32.09 41.8925 32.0703C42.0331 32.0319 42.1699 31.993 42.3009 31.9532C42.3701 31.9325 42.4387 31.9114 42.5054 31.8898C42.6355 31.8485 42.7598 31.8068 42.8798 31.765C42.9331 31.7463 42.9888 31.7281 43.0397 31.7093C43.1933 31.6537 43.3392 31.598 43.4755 31.5433L43.5081 31.5303C43.656 31.4703 43.7918 31.4113 43.9195 31.3537L44.0241 31.3057C44.111 31.2649 44.1945 31.225 44.2713 31.1871C44.3073 31.1689 44.3419 31.1516 44.3755 31.1338C44.4437 31.0988 44.5085 31.0647 44.5675 31.0321C44.5949 31.0172 44.6237 31.0018 44.6491 30.9874C44.7105 30.9529 44.7662 30.9202 44.8161 30.8914L44.8593 30.8655L44.8742 30.8564C44.7771 28.6428 43.8295 26.552 42.2288 25.0199C40.6282 23.4879 38.4979 22.6326 36.2822 22.6325L36.2789 22.6306Z" fill="url(#paint3_linear_25_118)"/>
<path d="M17.0365 31.0271C16.0414 32.3946 15.4736 34.026 15.4045 35.7158C16.1922 36.2231 18.8226 37.6199 23.9106 37.6199C28.9986 37.6199 31.7548 36.2188 32.5919 35.7038C32.5601 34.9554 32.4301 34.2145 32.205 33.5001C32.1538 33.3363 32.0977 33.1743 32.0365 33.0143C31.792 32.375 31.472 31.7672 31.0833 31.2038L31.0765 31.1932C30.8803 30.9087 30.6671 30.6362 30.4381 30.3772C30.3233 30.2492 30.2049 30.1233 30.0829 29.9995C29.322 29.2352 28.4233 28.6219 27.4343 28.1918C25.6374 27.4095 23.6273 27.2642 21.7365 27.7798C19.8457 28.2954 18.1876 29.441 17.0365 31.0271Z" fill="url(#paint4_linear_25_118)"/>
<path d="M11.721 18.6038C14.0396 18.6038 15.9191 16.7243 15.9191 14.4057C15.9191 12.0872 14.0396 10.2076 11.721 10.2076C9.40249 10.2076 7.52295 12.0872 7.52295 14.4057C7.52295 16.7243 9.40249 18.6038 11.721 18.6038Z" fill="url(#paint5_linear_25_118)"/>
<defs>
<linearGradient id="paint0_linear_25_118" x1="19.802" y1="19.2537" x2="28.1982" y2="19.2537" gradientUnits="userSpaceOnUse">
<stop stop-color="#FF4081"/>
<stop offset="1" stop-color="#6200EA"/>
</linearGradient>
<linearGradient id="paint1_linear_25_118" x1="32.0808" y1="14.4057" x2="40.477" y2="14.4057" gradientUnits="userSpaceOnUse">
<stop stop-color="#FF4081"/>
<stop offset="1" stop-color="#6200EA"/>
</linearGradient>
<linearGradient id="paint2_linear_25_118" x1="3.12622" y1="27.7005" x2="19.3166" y2="27.7005" gradientUnits="userSpaceOnUse">
<stop stop-color="#FF4081"/>
<stop offset="1" stop-color="#6200EA"/>
</linearGradient>
<linearGradient id="paint3_linear_25_118" x1="28.6824" y1="27.7001" x2="44.8742" y2="27.7001" gradientUnits="userSpaceOnUse">
<stop stop-color="#FF4081"/>
<stop offset="1" stop-color="#6200EA"/>
</linearGradient>
<linearGradient id="paint4_linear_25_118" x1="15.4045" y1="32.5483" x2="32.5919" y2="32.5483" gradientUnits="userSpaceOnUse">
<stop stop-color="#FF4081"/>
<stop offset="1" stop-color="#6200EA"/>
</linearGradient>
<linearGradient id="paint5_linear_25_118" x1="7.52295" y1="14.4057" x2="15.9191" y2="14.4057" gradientUnits="userSpaceOnUse">
<stop stop-color="#FF4081"/>
<stop offset="1" stop-color="#6200EA"/>
</linearGradient>
</defs>
</svg>
