<svg width="300" height="71" viewBox="0 0 300 71" fill="none" xmlns="http://www.w3.org/2000/svg">
<path opacity="0.5" d="M299.895 63.6336C299.837 63.7059 299.732 63.7176 299.658 63.6598L299.654 63.6562C294.385 59.4515 289.047 55.347 283.348 51.7856C280.564 49.9091 277.628 48.2756 274.741 46.5798C274.025 46.1453 273.281 45.7586 272.539 45.371L270.315 44.2019C268.829 43.4322 267.37 42.6146 265.842 41.9288L261.308 39.7858C259.789 39.0902 258.235 38.4704 256.703 37.81L254.399 36.8342L252.059 35.9443C250.494 35.3616 248.944 34.7517 247.373 34.1916C241.076 31.9935 234.675 30.1341 228.213 28.5675C221.134 26.9133 213.977 25.6475 206.784 24.7432C204.699 24.5571 198.203 24.1632 188.449 25.2545C188.531 27.2367 189.188 29.7981 190.14 32.2275C190.311 32.6656 189.866 33.0939 189.434 32.9087C185.528 31.2346 182.008 29.0771 179.567 26.5492C170.069 28.245 158.564 31.2752 145.675 36.6102C141.506 38.3358 137.179 39.9611 132.649 41.4283C135.943 49.2405 140.304 57.4792 145.19 65.3122C146.67 67.6856 144.539 70.6725 141.81 70.0563C122.162 65.6257 103.606 59.1479 88.2548 50.5659C89.0191 55.2413 90.0057 59.8842 91.2127 64.3157C91.9481 67.0143 89.0471 69.2622 86.6114 67.888C74.742 61.1951 62.9999 53.3269 52.5967 44.8497C33.1961 40.299 17.459 32.9249 4.32285 29.0093C4.25871 28.9904 4.13403 28.9515 4.13403 28.9515C-2.62736 26.3143 0.243794 20.3506 3.33268 19.2429C18.9767 13.6351 48.3369 8.39233e-05 86.7723 8.39233e-05C112.984 8.39233e-05 192.897 15.1674 201.391 16.5885C202.328 16.7457 203.189 16.9048 203.981 17.0683C212.676 18.5753 221.266 20.6062 229.684 23.1621C236.218 25.2021 242.649 27.534 248.933 30.1992C250.499 30.8759 252.045 31.6014 253.6 32.2997L255.924 33.3622L258.21 34.5105C259.728 35.2848 261.265 36.0184 262.764 36.8252L267.228 39.3025C268.731 40.0993 270.162 41.0263 271.616 41.9044L273.789 43.2352C274.515 43.6752 275.241 44.1152 275.938 44.6031C278.751 46.5103 281.6 48.3497 284.286 50.425C289.79 54.3858 294.888 58.8624 299.876 63.4041C299.941 63.4637 299.951 63.564 299.895 63.6336Z" fill="#5D3BAD" fill-opacity="0.24"/>
</svg>
