<svg width="139" height="77" viewBox="0 0 139 77" fill="none" xmlns="http://www.w3.org/2000/svg">
<path opacity="0.5" d="M134.623 56.9831L116.007 48.093C115.601 49.6396 115.092 51.1438 114.503 52.6076C113.86 54.207 113.113 55.7536 112.268 57.2402C111.156 59.1954 109.887 61.0502 108.461 62.773C106.499 65.1474 104.261 67.2823 101.793 69.1283C95.3794 73.93 87.4302 76.78 78.8482 76.78H23.9492C13.6717 76.78 5.26242 68.3779 5.26242 58.1069V42.8809L2.43349 42.8914C1.19792 42.8967 0.196777 41.8997 0.196777 40.6649C0.196777 39.4302 1.19792 38.4261 2.43349 38.4209L5.26242 38.4103V38.3909C5.26242 37.8149 5.28181 37.2442 5.30648 36.6753L2.43349 36.6858C1.19792 36.6893 0.196777 35.6924 0.196777 34.4576C0.196777 33.2246 1.19792 32.217 2.43349 32.2135L5.77357 32.2012C5.82116 31.9088 5.8758 31.6181 5.93044 31.3275L5.94982 31.2236C6.16838 30.0839 6.4363 28.9619 6.75532 27.8592C6.76942 27.8099 6.78352 27.757 6.79939 27.7059C7.11665 26.6156 7.48327 25.5446 7.89395 24.4966C7.9151 24.4402 7.93801 24.3856 7.95916 24.3328C8.37513 23.2864 8.83164 22.263 9.33573 21.2643C9.36041 21.215 9.38509 21.1674 9.408 21.1199C9.92091 20.1141 10.4708 19.1329 11.0666 18.18C11.0842 18.1518 11.1018 18.1254 11.1195 18.099C12.9649 15.1573 15.1945 12.4782 17.7415 10.139C17.7467 10.1354 17.752 10.1301 17.7556 10.1249C18.5752 9.37625 19.4282 8.66286 20.3095 7.98646C20.3695 7.9389 20.4259 7.8931 20.4876 7.84555C21.3353 7.20085 22.2149 6.59315 23.1156 6.01716C23.2143 5.95374 23.3147 5.88857 23.4134 5.82516C24.2982 5.27383 25.206 4.75948 26.1366 4.27684C26.2617 4.21167 26.3887 4.14649 26.5156 4.08308C27.4391 3.61806 28.3821 3.19003 29.3445 2.80074C29.4873 2.74261 29.6283 2.68801 29.771 2.63341C30.7369 2.25469 31.7222 1.90945 32.7234 1.61001C32.8661 1.56773 33.0071 1.53074 33.1499 1.48846C34.1687 1.19606 35.2015 0.940651 36.252 0.732803C36.3754 0.708138 36.5005 0.688759 36.6239 0.665855C37.7044 0.463295 38.799 0.299477 39.9094 0.190269C39.9905 0.181458 40.0733 0.17794 40.1544 0.170891C41.3159 0.0652084 42.4898 3.05176e-05 43.6778 3.05176e-05H78.8482C85.1283 3.05176e-05 91.0664 1.53779 96.3153 4.23985C97.1332 4.66084 97.9422 5.10297 98.7283 5.57856C99.7841 6.22325 100.806 6.9155 101.793 7.65355C102.78 8.39336 103.73 9.17721 104.642 10.0051C105.551 10.833 106.424 11.7031 107.252 12.6138C109.323 14.8896 111.124 17.412 112.607 20.1317C113.201 21.2185 113.742 22.3388 114.23 23.4837C114.942 25.1642 115.536 26.901 116.007 28.6888L134.623 19.7988C140.237 32.1941 140.237 44.5895 134.623 56.9831Z" fill="#A93185" fill-opacity="0.17"/>
</svg>
