<svg width="39" height="39" viewBox="0 0 39 39" fill="none" xmlns="http://www.w3.org/2000/svg">
<path d="M8.0048 7.92959C9.16717 7.92959 10.1095 6.9873 10.1095 5.82493C10.1095 4.66256 9.16717 3.72028 8.0048 3.72028C6.84243 3.72028 5.90015 4.66256 5.90015 5.82493C5.90015 6.9873 6.84243 7.92959 8.0048 7.92959Z" fill="#FCEA2B"/>
<path d="M32.5531 14.4708C33.7155 14.4708 34.6578 13.5286 34.6578 12.3662C34.6578 11.2038 33.7155 10.2615 32.5531 10.2615C31.3908 10.2615 30.4485 11.2038 30.4485 12.3662C30.4485 13.5286 31.3908 14.4708 32.5531 14.4708Z" fill="#5D3BAD"/>
<path d="M14.3134 28.9818C15.4758 28.9818 16.4181 28.0395 16.4181 26.8771C16.4181 25.7147 15.4758 24.7725 14.3134 24.7725C13.151 24.7725 12.2087 25.7147 12.2087 26.8771C12.2087 28.0395 13.151 28.9818 14.3134 28.9818Z" fill="#FCEA2B"/>
<path d="M4.10184 12.9134L6.26332 11.0094L9.65462 10.8705L11.7375 12.8538L12.2174 15.6459L3.74194 15.6403L4.10184 12.9134ZM28.694 19.4561L30.8562 17.5521L34.2475 17.4132L36.3297 19.3964L36.8103 22.1886L28.3341 22.1837L28.694 19.4561ZM10.4495 33.9656L12.611 32.0616L16.003 31.9227L18.0852 33.9059L18.565 36.6981L10.0896 36.6925L10.4495 33.9656Z" fill="#5D3BAD"/>
<path d="M8.0048 7.92953C9.16717 7.92953 10.1095 6.98724 10.1095 5.82487C10.1095 4.6625 9.16717 3.72021 8.0048 3.72021C6.84243 3.72021 5.90015 4.6625 5.90015 5.82487C5.90015 6.98724 6.84243 7.92953 8.0048 7.92953Z" fill="#5D3BAD" stroke="#5D3BAD" stroke-width="0.777778" stroke-miterlimit="10"/>
<path d="M3.79468 14.9451C3.79468 14.9451 4.49623 11.9207 5.89933 11.2192C7.30244 10.5176 8.70554 10.5176 10.1086 11.2192C11.5117 11.9207 12.2133 14.9451 12.2133 14.9451" stroke="#5D3BAD" stroke-width="0.777778" stroke-miterlimit="10" stroke-linecap="round" stroke-linejoin="round"/>
<path d="M32.5531 14.4708C33.7155 14.4708 34.6578 13.5286 34.6578 12.3662C34.6578 11.2038 33.7155 10.2615 32.5531 10.2615C31.3908 10.2615 30.4485 11.2038 30.4485 12.3662C30.4485 13.5286 31.3908 14.4708 32.5531 14.4708Z" stroke="#5D3BAD" stroke-width="0.777778" stroke-miterlimit="10"/>
<path d="M28.3442 21.4864C28.3442 21.4864 29.0458 18.462 30.4489 17.7604C31.852 17.0589 33.2551 17.0589 34.6582 17.7604C36.0613 18.462 36.7629 21.4857 36.7629 21.4857" stroke="#5D3BAD" stroke-width="0.777778" stroke-miterlimit="10" stroke-linecap="round" stroke-linejoin="round"/>
<path d="M14.3134 28.9817C15.4758 28.9817 16.4181 28.0394 16.4181 26.8771C16.4181 25.7147 15.4758 24.7724 14.3134 24.7724C13.151 24.7724 12.2087 25.7147 12.2087 26.8771C12.2087 28.0394 13.151 28.9817 14.3134 28.9817Z" fill="#5D3BAD" stroke="#5D3BAD" stroke-width="0.777778" stroke-miterlimit="10"/>
<path d="M10.1041 35.9972C10.1041 35.9972 10.8057 32.9728 12.2088 32.2713C13.6119 31.5697 15.015 31.5697 16.4181 32.2713C17.8212 32.9728 18.5228 35.9965 18.5228 35.9965M30.1398 8.02496C27.1799 4.53334 22.7615 2.31714 17.8261 2.31714C15.8828 2.31714 14.0209 2.6609 12.2958 3.29019M20.9361 34.289C26.6979 33.1637 31.3626 28.9733 33.162 23.4837M1.75146 17.0413C1.71076 17.5107 1.6904 17.9817 1.69043 18.4528C1.69043 24.047 4.53733 28.9761 8.86169 31.8714" stroke="#5D3BAD" stroke-miterlimit="10" stroke-linecap="round" stroke-linejoin="round"/>
</svg>
