<svg width="32" height="30" viewBox="0 0 32 30" fill="none" xmlns="http://www.w3.org/2000/svg">
<mask id="path-1-inside-1_1_1350" fill="white">
<path d="M7.83551 13.625C9.11167 13.625 10.2628 12.9188 11.0513 11.915C12.2803 10.3469 13.8232 9.05262 15.5812 8.115C16.7259 7.507 17.7187 6.60133 18.1984 5.39958C18.5354 4.55765 18.7084 3.65911 18.7083 2.75225V1.75C18.7083 1.43506 18.8334 1.13301 19.0561 0.910311C19.2788 0.687611 19.5808 0.5625 19.8958 0.5625C20.8406 0.5625 21.7467 0.937834 22.4148 1.60593C23.0829 2.27403 23.4583 3.18017 23.4583 4.125C23.4583 5.949 23.0466 7.67642 22.3135 9.22017C21.8923 10.1037 22.4829 11.25 23.4614 11.25H28.4109C30.0354 11.25 31.4905 12.3488 31.6631 13.9654C31.7343 14.6336 31.7708 15.3113 31.7708 16C31.7773 20.3326 30.2968 24.5361 27.5765 27.9083C26.9622 28.6714 26.0138 29.0625 25.0353 29.0625H18.6766C17.9109 29.0621 17.1503 28.9392 16.4235 28.6983L11.493 27.0517C10.7664 26.81 10.0056 26.6871 9.23992 26.6875H6.68126M19.8958 11.25H23.4583H19.8958ZM6.68126 26.6875C6.81267 27.0121 6.95517 27.3287 7.10876 27.6407C7.42067 28.274 6.98526 29.0625 6.28067 29.0625H4.84301C3.43542 29.0625 2.13076 28.2423 1.72067 26.8965C1.17228 25.0966 0.894271 23.2253 0.895758 21.3438C0.895758 18.8848 1.36284 16.5368 2.21151 14.3803C2.69601 13.1548 3.93101 12.4375 5.24992 12.4375H6.91717C7.66451 12.4375 8.09676 13.3178 7.70884 13.9575C6.3565 16.1836 5.64326 18.7391 5.64734 21.3438C5.64475 23.1751 5.99638 24.9897 6.68284 26.6875H6.68126Z"/>
</mask>
<path d="M7.83551 13.625C9.11167 13.625 10.2628 12.9188 11.0513 11.915C12.2803 10.3469 13.8232 9.05262 15.5812 8.115C16.7259 7.507 17.7187 6.60133 18.1984 5.39958C18.5354 4.55765 18.7084 3.65911 18.7083 2.75225V1.75C18.7083 1.43506 18.8334 1.13301 19.0561 0.910311C19.2788 0.687611 19.5808 0.5625 19.8958 0.5625C20.8406 0.5625 21.7467 0.937834 22.4148 1.60593C23.0829 2.27403 23.4583 3.18017 23.4583 4.125C23.4583 5.949 23.0466 7.67642 22.3135 9.22017C21.8923 10.1037 22.4829 11.25 23.4614 11.25H28.4109C30.0354 11.25 31.4905 12.3488 31.6631 13.9654C31.7343 14.6336 31.7708 15.3113 31.7708 16C31.7773 20.3326 30.2968 24.5361 27.5765 27.9083C26.9622 28.6714 26.0138 29.0625 25.0353 29.0625H18.6766C17.9109 29.0621 17.1503 28.9392 16.4235 28.6983L11.493 27.0517C10.7664 26.81 10.0056 26.6871 9.23992 26.6875H6.68126M19.8958 11.25H23.4583H19.8958ZM6.68126 26.6875C6.81267 27.0121 6.95517 27.3287 7.10876 27.6407C7.42067 28.274 6.98526 29.0625 6.28067 29.0625H4.84301C3.43542 29.0625 2.13076 28.2423 1.72067 26.8965C1.17228 25.0966 0.894271 23.2253 0.895758 21.3438C0.895758 18.8848 1.36284 16.5368 2.21151 14.3803C2.69601 13.1548 3.93101 12.4375 5.24992 12.4375H6.91717C7.66451 12.4375 8.09676 13.3178 7.70884 13.9575C6.3565 16.1836 5.64326 18.7391 5.64734 21.3438C5.64475 23.1751 5.99638 24.9897 6.68284 26.6875H6.68126Z" fill="#5D3BAD"/>
<path d="M7.83551 11.125C6.4548 11.125 5.33551 12.2443 5.33551 13.625C5.33551 15.0057 6.4548 16.125 7.83551 16.125V11.125ZM11.0513 11.915L13.0173 13.4593L13.0189 13.4572L11.0513 11.915ZM15.5812 8.115L14.4085 5.90709L14.4047 5.90914L15.5812 8.115ZM18.1984 5.39958L15.8774 4.47071L15.8766 4.47269L18.1984 5.39958ZM18.7083 2.75225H16.2083V2.75267L18.7083 2.75225ZM19.8958 0.5625V-1.9375V0.5625ZM22.3135 9.22017L24.5702 10.2959L24.5718 10.2926L22.3135 9.22017ZM31.6631 13.9654L34.149 13.7003L34.149 13.7L31.6631 13.9654ZM31.7708 16H29.2708L29.2708 16.0038L31.7708 16ZM27.5765 27.9083L25.6307 26.3386L25.6291 26.3406L27.5765 27.9083ZM18.6766 29.0625L18.6754 31.5625H18.6766V29.0625ZM16.4235 28.6983L15.6316 31.0696L15.637 31.0714L16.4235 28.6983ZM11.493 27.0517L12.2849 24.6804L12.2819 24.6794L11.493 27.0517ZM9.23992 26.6875V29.1875L9.24136 29.1875L9.23992 26.6875ZM6.68126 26.6875V24.1875C5.84984 24.1875 5.07282 24.6008 4.60815 25.2903C4.14348 25.9797 4.05197 26.8551 4.36398 27.6257L6.68126 26.6875ZM19.8958 8.75C18.515 8.75 17.3958 9.86929 17.3958 11.25C17.3958 12.6307 18.515 13.75 19.8958 13.75V8.75ZM23.4583 13.75C24.839 13.75 25.9583 12.6307 25.9583 11.25C25.9583 9.86929 24.839 8.75 23.4583 8.75V13.75ZM7.10876 27.6407L4.8659 28.745L4.866 28.7452L7.10876 27.6407ZM1.72067 26.8965L-0.670783 27.6252L-0.670772 27.6252L1.72067 26.8965ZM0.895758 21.3438L3.39576 21.3457V21.3438H0.895758ZM2.21151 14.3803L-0.113397 13.4611L-0.114831 13.4647L2.21151 14.3803ZM7.70884 13.9575L9.84548 15.2555L9.84648 15.2538L7.70884 13.9575ZM5.64734 21.3438L8.14735 21.3473L8.14734 21.3398L5.64734 21.3438ZM6.68284 26.6875V29.1875C7.51405 29.1875 8.29089 28.7744 8.75561 28.0852C9.22033 27.3961 9.31213 26.521 9.00056 25.7504L6.68284 26.6875ZM7.83551 16.125C10.0642 16.125 11.8824 14.904 13.0173 13.4593L9.08525 10.3707C8.64308 10.9336 8.15913 11.125 7.83551 11.125V16.125ZM13.0189 13.4572C14.0333 12.163 15.3067 11.0947 16.7577 10.3209L14.4047 5.90914C12.3397 7.01051 10.5273 8.53082 9.08363 10.3728L13.0189 13.4572ZM16.7538 10.3229C18.2442 9.53133 19.7568 8.23889 20.5202 6.32648L15.8766 4.47269C15.6806 4.96378 15.2076 5.48267 14.4085 5.90709L16.7538 10.3229ZM20.5195 6.32846C20.9747 5.19097 21.2085 3.97702 21.2083 2.75183L16.2083 2.75267C16.2084 3.3412 16.0961 3.92432 15.8774 4.47071L20.5195 6.32846ZM21.2083 2.75225V1.75H16.2083V2.75225H21.2083ZM21.2083 1.75C21.2083 2.0981 21.07 2.43194 20.8238 2.67808L17.2883 -0.857456C16.5968 -0.165918 16.2083 0.772011 16.2083 1.75H21.2083ZM20.8238 2.67808C20.5777 2.92422 20.2439 3.0625 19.8958 3.0625V-1.9375C18.9178 -1.9375 17.9798 -1.549 17.2883 -0.857456L20.8238 2.67808ZM19.8958 3.0625C20.1775 3.0625 20.4478 3.17444 20.6471 3.3737L24.1826 -0.161835C23.0457 -1.29877 21.5036 -1.9375 19.8958 -1.9375V3.0625ZM20.6471 3.3737C20.8463 3.57296 20.9583 3.84321 20.9583 4.125H25.9583C25.9583 2.51712 25.3195 0.975104 24.1826 -0.161835L20.6471 3.3737ZM20.9583 4.125C20.9583 5.56914 20.633 6.931 20.0552 8.14776L24.5718 10.2926C25.4602 8.42184 25.9583 6.32886 25.9583 4.125H20.9583ZM20.0568 8.14439C19.4671 9.38153 19.6058 10.7367 20.1696 11.7667C20.745 12.8179 21.9023 13.75 23.4614 13.75V8.75C24.0421 8.75 24.4148 9.1089 24.5556 9.36605C24.6848 9.60206 24.7388 9.9423 24.5702 10.2959L20.0568 8.14439ZM23.4614 13.75H28.4109V8.75H23.4614V13.75ZM28.4109 13.75C28.6669 13.75 28.8773 13.8383 29.0076 13.9439C29.1246 14.0387 29.1667 14.1325 29.1772 14.2308L34.149 13.7C33.817 10.5909 31.0773 8.75 28.4109 8.75V13.75ZM29.1772 14.2305C29.239 14.8105 29.2708 15.3997 29.2708 16H34.2708C34.2708 15.2228 34.2296 14.4567 34.149 13.7003L29.1772 14.2305ZM29.2708 16.0038C29.2764 19.7639 27.9915 23.412 25.6307 26.3386L29.5223 29.4779C32.602 25.6602 34.2782 20.9012 34.2708 15.9962L29.2708 16.0038ZM25.6291 26.3406C25.5558 26.4316 25.3699 26.5625 25.0353 26.5625V31.5625C26.6577 31.5625 28.3685 30.9113 29.5239 29.4759L25.6291 26.3406ZM25.0353 26.5625H18.6766V31.5625H25.0353V26.5625ZM18.6777 26.5625C18.179 26.5623 17.6834 26.4822 17.21 26.3253L15.637 31.0714C16.6171 31.3962 17.6429 31.562 18.6754 31.5625L18.6777 26.5625ZM17.2154 26.3271L12.2849 24.6804L10.7011 29.4229L15.6316 31.0696L17.2154 26.3271ZM12.2819 24.6794C11.3005 24.353 10.2728 24.1869 9.23849 24.1875L9.24136 29.1875C9.73847 29.1872 10.2324 29.267 10.7041 29.4239L12.2819 24.6794ZM9.23992 24.1875H6.68126V29.1875H9.23992V24.1875ZM19.8958 13.75H23.4583V8.75H19.8958V13.75ZM4.36398 27.6257C4.51917 28.009 4.68669 28.3811 4.8659 28.745L9.35161 26.5363C9.22365 26.2764 9.10618 26.0152 8.99853 25.7493L4.36398 27.6257ZM4.866 28.7452C4.62543 28.2567 4.68547 27.7333 4.90549 27.3484C5.13429 26.9481 5.62415 26.5625 6.28067 26.5625V31.5625C9.06961 31.5625 10.3765 28.6173 9.35151 26.5361L4.866 28.7452ZM6.28067 26.5625H4.84301V31.5625H6.28067V26.5625ZM4.84301 26.5625C4.61813 26.5625 4.43047 26.4957 4.3058 26.4116C4.19035 26.3337 4.13723 26.2502 4.11212 26.1678L-0.670772 27.6252C0.111642 30.193 2.52364 31.5625 4.84301 31.5625V26.5625ZM4.11213 26.1679C3.63589 24.6048 3.39447 22.9797 3.39576 21.3457L-1.60424 21.3418C-1.60592 23.4709 -1.29134 25.5885 -0.670783 27.6252L4.11213 26.1679ZM3.39576 21.3438C3.39576 19.204 3.80179 17.1661 4.53785 15.2958L-0.114831 13.4647C-1.07611 15.9074 -1.60424 18.5657 -1.60424 21.3438H3.39576ZM4.53641 15.2994C4.58566 15.1748 4.78934 14.9375 5.24992 14.9375V9.9375C3.07267 9.9375 0.806357 11.1347 -0.113394 13.4611L4.53641 15.2994ZM5.24992 14.9375H6.91717V9.9375H5.24992V14.9375ZM6.91717 14.9375C6.21507 14.9375 5.72 14.5021 5.51154 14.0933C5.31218 13.7023 5.27123 13.1558 5.5712 12.6612L9.84648 15.2538C11.0976 13.1907 9.89024 9.9375 6.91717 9.9375V14.9375ZM5.57221 12.6595C3.9815 15.278 3.14255 18.2839 3.14734 21.3477L8.14734 21.3398C8.14398 19.1943 8.7315 17.0892 9.84548 15.2555L5.57221 12.6595ZM3.14734 21.3402C3.1443 23.4939 3.55782 25.6279 4.36512 27.6246L9.00056 25.7504C8.43493 24.3514 8.14521 22.8563 8.14734 21.3473L3.14734 21.3402ZM6.68284 24.1875H6.68126V29.1875H6.68284V24.1875Z" fill="#5D3BAD" mask="url(#path-1-inside-1_1_1350)"/>
</svg>
