<svg width="75" height="64" viewBox="0 0 75 64" fill="none" xmlns="http://www.w3.org/2000/svg">
<path d="M0 32.4517C0 15.0547 14.103 0.95166 31.5 0.95166H34.0909C56.6844 0.95166 75 19.2673 75 41.8608V48.2017C75 56.9001 67.9485 63.9517 59.25 63.9517H31.5C14.103 63.9517 0 49.8486 0 32.4517Z" fill="#681CFF"/>
<path d="M0 32.4517C0 15.0547 14.103 0.95166 31.5 0.95166H34.0909C56.6844 0.95166 75 19.2673 75 41.8608V48.2017C75 56.9001 67.9485 63.9517 59.25 63.9517H31.5C14.103 63.9517 0 49.8486 0 32.4517Z" fill="url(#paint0_linear_25_194)"/>
<defs>
<linearGradient id="paint0_linear_25_194" x1="37.5" y1="0.95166" x2="37.5" y2="63.9517" gradientUnits="userSpaceOnUse">
<stop stop-color="#A93185" stop-opacity="0"/>
<stop offset="1" stop-color="#A93185"/>
</linearGradient>
</defs>
</svg>
