<svg width="37" height="30" viewBox="0 0 37 30" fill="none" xmlns="http://www.w3.org/2000/svg">
<path d="M23.9818 2.39037L16.5815 28.6396C16.2982 29.6356 15.2749 30.2098 14.2921 29.9286C13.3092 29.6415 12.7426 28.6044 13.0201 27.6084L20.4204 1.36035C20.7037 0.364657 21.727 -0.211875 22.7099 0.0726411C23.6927 0.357099 24.2593 1.39492 23.9818 2.39037ZM29.983 7.11337L36.4582 13.6755C37.1809 14.4079 37.1809 15.5914 36.4582 16.3238L29.983 22.886C29.2603 23.6184 28.0924 23.6184 27.3698 22.886C26.6471 22.1536 26.6471 20.9701 27.3698 20.2377L32.5326 14.9997L27.3698 9.76167C26.6471 9.02929 26.6471 7.84575 27.3698 7.11337C28.0924 6.38099 29.2603 6.38099 29.983 7.11337ZM9.63218 9.76167L4.46643 14.9997L9.63218 20.2377C10.3549 20.9701 10.3549 22.1536 9.63218 22.886C8.9095 23.6184 7.74164 23.6184 7.01896 22.886L0.542084 16.3238C-0.180369 15.5914 -0.180369 14.4079 0.542084 13.6755L7.01896 7.11337C7.74164 6.38099 8.9095 6.38099 9.63218 7.11337C10.3549 7.84575 10.3549 9.02929 9.63218 9.76167Z" fill="#5D3BAD"/>
</svg>
