<svg width="83" height="29" viewBox="0 0 83 29" fill="none" xmlns="http://www.w3.org/2000/svg">
<path opacity="0.5" d="M64.7287 25.0061C62.8556 26.5484 60.5678 27.8081 57.7812 28.4382C46.2671 31.0425 22.8481 23.747 22.8481 23.747C22.8481 23.747 25.0393 21.7213 28.38 18.9723C28.422 18.9831 28.4691 18.9933 28.5117 19.0042C23.1109 17.1876 18.5194 15.426 15.8301 14.3589L0.18567 21.8533C-1.09757 19.0105 4.69132 16.1678 4.69132 13.3243C4.69132 10.4815 -1.09757 7.63874 0.18567 4.79532L15.8301 12.2898C19.5157 10.8266 26.7755 8.06099 34.7866 5.63661L33.6612 3.59493C33.5002 3.30281 33.6071 2.93159 33.8985 2.77022L37.0516 1.02258C40.3535 -0.807343 44.3934 -0.0974426 46.9205 2.4832C51.157 1.60172 55.2135 1.0398 58.6777 1.0398C74.8928 1.0398 83 13.3243 83 13.3243C83 13.3243 76.9064 22.5454 64.7287 25.0061Z" fill="#FD3F83" fill-opacity="0.11"/>
</svg>
