<svg width="139" height="49" viewBox="0 0 139 49" fill="none" xmlns="http://www.w3.org/2000/svg">
<path opacity="0.5" d="M107.688 41.4978C104.572 44.0572 100.766 46.1477 96.1297 47.1935C76.9738 51.5153 38.0121 39.4084 38.0121 39.4084C38.0121 39.4084 41.6574 36.0467 47.2154 31.4846C47.2852 31.5026 47.3635 31.5195 47.4345 31.5375C38.4492 28.523 30.8104 25.5995 26.3363 23.8286L0.308895 36.2658C-1.82601 31.5481 7.80487 26.8305 7.80487 22.1118C7.80487 17.3942 -1.82601 12.6765 0.308895 7.95782L26.3363 20.3949C32.4679 17.9668 44.5459 13.3772 57.874 9.35395L56.0016 5.96576C55.7338 5.48098 55.9116 4.86495 56.3964 4.59715L61.6421 1.69692C67.1355 -1.33985 73.8567 -0.161766 78.0608 4.12084C85.1091 2.65802 91.8578 1.7255 97.6211 1.7255C124.598 1.7255 138.086 22.1118 138.086 22.1118C138.086 22.1118 127.948 37.4142 107.688 41.4978Z" fill="#A93185" fill-opacity="0.17"/>
</svg>
