<svg width="117" height="59" viewBox="0 0 117 59" fill="none" xmlns="http://www.w3.org/2000/svg">
<g clip-path="url(#clip0_1_1293)">
<path d="M103.042 39.2686C102.347 39.2686 101.697 39.4141 101.091 39.7059C100.486 39.9754 99.9585 40.3464 99.5094 40.8176C99.061 41.2896 98.7026 41.8393 98.4334 42.4676C98.1866 43.0743 98.0635 43.7141 98.0635 44.3877C98.0635 44.9267 98.1642 45.4433 98.3665 45.9368C98.568 46.4087 98.8372 46.8238 99.174 47.1833C99.5324 47.5428 99.9477 47.8231 100.418 48.0249C100.889 48.2496 101.394 48.362 101.932 48.362C102.583 48.362 103.199 48.2165 103.783 47.924C104.367 47.6545 104.871 47.2842 105.297 46.8123C105.745 46.3187 106.093 45.7574 106.339 45.1291C106.609 44.5001 106.743 43.838 106.743 43.142C106.743 42.0418 106.396 41.121 105.7 40.3803C105.027 39.6389 104.141 39.2686 103.042 39.2686Z" fill="url(#paint0_linear_1_1293)"/>
<path d="M67.6815 36.4409C67.9499 35.8119 68.2759 35.1606 68.6567 34.4876C69.0388 33.7909 69.4649 33.0956 69.9356 32.3996C70.4293 31.7029 70.9784 31.0854 71.5844 30.5465C72.212 29.9852 72.8964 29.5364 73.6363 29.1999C74.3762 28.8634 75.1728 28.6948 76.025 28.6948H76.328C76.4172 28.6948 76.5173 28.7056 76.6296 28.728C76.8994 28.7733 77.1348 28.8965 77.3363 29.099C77.5609 29.3007 77.6731 29.5702 77.6731 29.9074C77.6731 30.3109 77.4824 30.7943 77.1016 31.3549C76.7202 31.8945 76.025 32.4775 75.0159 33.1064C74.7914 33.2412 74.3991 33.4998 73.8385 33.881C73.3002 34.2628 72.6604 34.6894 71.9205 35.1606C71.1806 35.6325 70.3839 36.1268 69.5311 36.6427C68.702 37.1593 67.8945 37.6197 67.11 38.0239C67.2446 37.5973 67.4353 37.0692 67.6815 36.4409ZM44.9733 34.4876C45.3541 33.7909 45.7801 33.0956 46.2515 32.3996C46.7452 31.7029 47.2944 31.0854 47.9003 30.5465C48.5279 29.9852 49.2117 29.5364 49.9522 29.1999C50.6928 28.8634 51.4888 28.6948 52.3409 28.6948H52.6439C52.7332 28.6948 52.834 28.7056 52.9462 28.728C53.2154 28.7733 53.4507 28.8965 53.6529 29.099C53.8775 29.3007 53.9897 29.5702 53.9897 29.9074C53.9897 30.3109 53.799 30.7943 53.4176 31.3549C53.0362 31.8945 52.3409 32.4775 51.3312 33.1064C51.1074 33.2412 50.7151 33.4998 50.1538 33.881C49.6161 34.2628 48.977 34.6894 48.2365 35.1606C47.4959 35.6325 46.7006 36.1268 45.8478 36.6427C45.0802 37.1207 44.3335 37.5452 43.6038 37.927C43.572 37.883 43.5389 37.8397 43.5017 37.7998C43.6302 37.4132 43.7898 36.9711 43.9974 36.4409C44.2666 35.8119 44.5919 35.1606 44.9733 34.4876ZM115.992 12.5288C115.722 11.7651 115.363 11.1361 114.915 10.6426C114.489 10.1483 113.984 9.77797 113.401 9.53085C112.841 9.2844 112.246 9.1605 111.618 9.1605C110.273 9.1605 108.859 9.39612 107.38 9.86734C105.922 10.3392 104.419 11.1815 102.871 12.3934C101.324 13.606 99.7428 15.2567 98.1278 17.3447C96.5351 19.4327 94.9431 22.082 93.3504 25.2933H89.3806C88.3046 25.2933 87.4856 25.5512 86.9249 26.0678C86.3643 26.5614 86.0836 27.078 86.0836 27.6169C86.0836 28.1328 86.3081 28.5824 86.7565 28.9642C87.2056 29.3461 88.0462 29.5364 89.2798 29.5364H91.0632L87.3442 37.426C87.1177 37.5445 86.7896 37.7314 86.3528 37.99C85.7698 38.3495 85.0292 38.7761 84.1325 39.2696C83.258 39.7639 82.2713 40.2913 81.1723 40.8526C80.0733 41.3915 78.9398 41.8973 77.7746 42.3685C76.6296 42.8397 75.4643 43.2331 74.2754 43.5472C73.1094 43.8391 72.0105 43.9853 70.9784 43.9853C70.014 43.9853 69.2403 43.8052 68.6567 43.4464C68.0744 43.0645 67.7268 42.5479 67.6145 41.8973C70.6646 40.774 73.1987 39.663 75.2175 38.5628C77.2585 37.4402 78.8844 36.3509 80.0956 35.296C81.3069 34.2182 82.159 33.1626 82.652 32.1301C83.1457 31.097 83.3926 30.1091 83.3926 29.166C83.3926 27.5716 82.9327 26.3258 82.0123 25.4273C81.0938 24.5296 79.7034 24.0807 77.8408 24.0807C76.0696 24.0807 74.3991 24.3386 72.8281 24.8552C71.2814 25.3718 69.8571 26.0563 68.5566 26.9094C67.2554 27.7632 66.0779 28.751 65.0243 29.8735C63.9922 30.9737 63.1178 32.1078 62.3995 33.275C61.682 34.4423 61.1328 35.6102 60.7514 36.7781C60.4389 37.7145 60.2618 38.5885 60.2049 39.4051C59.3907 39.86 58.4885 40.3421 57.4882 40.8526C56.3893 41.3915 55.2565 41.8973 54.0898 42.3685C52.9462 42.8397 51.7796 43.2331 50.5913 43.5472C49.4254 43.8391 48.3264 43.9853 47.2944 43.9853C46.33 43.9853 45.5563 43.8052 44.9733 43.4464C44.3903 43.0645 44.0427 42.5479 43.9305 41.8973C46.9806 40.774 49.5153 39.663 51.5334 38.5628C53.5745 37.4402 55.2003 36.3509 56.4116 35.296C57.6228 34.2182 58.475 33.1626 58.968 32.1301C59.4617 31.097 59.7085 30.1091 59.7085 29.166C59.7085 27.5716 59.2487 26.3258 58.3289 25.4273C57.4098 24.5296 56.0193 24.0807 54.1575 24.0807C52.3856 24.0807 50.7151 24.3386 49.1447 24.8552C47.5974 25.3718 46.1731 26.0563 44.8719 26.9094C43.572 27.7632 42.3939 28.751 41.3402 29.8735C40.3082 30.9737 39.4331 32.1078 38.7162 33.275C37.9979 34.4423 37.4488 35.6102 37.0674 36.7781C36.6859 37.9223 36.4959 38.9778 36.4959 39.9433C36.4959 40.5405 36.5419 41.1241 36.6278 41.6962C35.969 42.1011 35.2271 42.4836 34.3824 42.8397C33.1036 43.3787 31.6461 43.6481 30.0088 43.6481H29.5381C29.3805 43.6481 29.2121 43.6366 29.0336 43.6143C28.1355 43.5472 27.284 43.0984 26.4758 42.2669C25.669 41.4362 24.9284 40.4376 24.2555 39.2696C23.6056 38.0801 23.0449 36.8336 22.5736 35.5316C22.1252 34.2067 21.7999 33.0164 21.5977 31.9615C23.0334 31.7144 24.5139 31.3102 26.0389 30.749C27.5863 30.1877 29.0897 29.5025 30.5471 28.6948C32.0046 27.8864 33.3734 26.9656 34.6509 25.9324C35.9521 24.8776 37.0849 23.7327 38.0493 22.4977C39.0131 21.2404 39.7759 19.9046 40.3366 18.4896C40.9202 17.0529 41.211 15.5485 41.211 13.9764C41.211 11.6419 40.7288 9.59855 39.7651 7.84702C38.823 6.09549 37.5441 4.64796 35.9298 3.50239C34.3148 2.33447 32.453 1.45905 30.3449 0.875427C28.2592 0.291809 26.0727 0 23.7848 0C21.4523 0 19.2435 0.247124 17.1577 0.740694C15.0714 1.21192 13.1425 1.85241 11.3706 2.66013C9.62105 3.44619 8.03986 4.36698 6.62775 5.4225C5.21428 6.45501 4.01452 7.53287 3.02712 8.65542C2.06339 9.77797 1.31202 10.9005 0.773688 12.0231C0.258347 13.1456 0 14.1903 0 15.1558C0 16.1883 0.280665 16.9967 0.840642 17.5803C1.40129 18.1416 2.24261 18.4226 3.36392 18.4226C4.19374 18.4226 4.88898 18.2316 5.44963 17.8498C6.01096 17.4679 6.51548 16.9743 6.96387 16.3684C7.43457 15.7617 7.88364 15.0657 8.3097 14.2797C8.73577 13.4936 9.20648 12.6859 9.7225 11.8552C10.2608 11.0237 10.8884 10.216 11.6067 9.42997C12.3465 8.64391 13.244 7.94858 14.2977 7.34194C15.3743 6.7353 16.6411 6.24173 18.0998 5.85988C19.5796 5.47802 21.3407 5.28709 23.3811 5.28709C25.1983 5.28709 26.7565 5.50036 28.057 5.92758C29.3805 6.35412 30.4572 6.92623 31.287 7.64526C32.1392 8.36361 32.7559 9.20519 33.1374 10.1707C33.5411 11.1361 33.7427 12.1578 33.7427 13.2357C33.7427 14.7401 33.3619 16.2892 32.599 17.8836C31.8585 19.4774 30.838 20.9256 29.5381 22.2283C28.2369 23.5302 26.7118 24.6081 24.9623 25.4612C23.235 26.2919 21.3968 26.7076 19.445 26.7076H18.9736C18.839 26.7076 18.7051 26.6961 18.5705 26.6738C19.1535 25.4388 19.7142 24.2378 20.2525 23.0698C20.7908 21.8803 21.2615 20.7909 21.6653 19.8031C22.069 18.8153 22.3943 17.9398 22.6405 17.1761C22.888 16.4124 23.0111 15.8179 23.0111 15.3914C23.0111 14.9649 22.9442 14.6169 22.8089 14.3474C22.6743 14.0556 22.5181 13.8423 22.3382 13.7069C22.1583 13.5498 21.9575 13.4489 21.7329 13.4043C21.5084 13.3366 21.3177 13.3034 21.1608 13.3034C20.5778 13.3034 19.9157 13.6399 19.1758 14.3135C18.4583 14.9649 17.6846 15.8403 16.8548 16.9405C16.0466 18.0407 15.2059 19.3095 14.3315 20.7462C13.4787 22.1606 12.6272 23.6318 11.7744 25.1579L1.85036 43.3448C1.60351 43.8167 1.41279 44.3218 1.27821 44.8607C1.14362 45.3997 1.07667 45.9271 1.07667 46.4437C1.07667 46.8032 1.12131 47.1844 1.21125 47.5886C1.32352 47.9928 1.50274 48.3631 1.74959 48.7003C1.99576 49.0368 2.34406 49.3178 2.79244 49.5419C3.24083 49.7666 3.8238 49.879 4.54203 49.879C5.41649 49.879 6.22399 49.5642 6.96387 48.9359C7.70374 48.3069 8.39965 47.4877 9.04958 46.4775C9.70018 45.4443 10.2946 44.2879 10.8323 43.0083C11.3706 41.7057 11.8867 40.3922 12.3797 39.0679C12.8734 37.7429 13.3339 36.4633 13.76 35.2283C14.1854 33.971 14.6007 32.8823 15.0037 31.9615C15.722 34.2967 16.541 36.5195 17.4601 38.6298C18.3798 40.7179 19.3997 42.5479 20.5217 44.1194C21.643 45.6915 22.888 46.9372 24.2555 47.858C25.6237 48.7788 27.1156 49.2392 28.7299 49.2392C30.7034 49.2392 32.7898 48.745 34.9877 47.7572C36.0516 47.2731 37.1262 46.6509 38.211 45.8986C38.3686 46.1336 38.537 46.3604 38.7162 46.5784C39.4561 47.4538 40.342 48.1498 41.374 48.6664C42.4277 49.183 43.6275 49.441 44.9733 49.441C46.543 49.441 48.1357 49.2277 49.75 48.8012C51.365 48.397 52.9131 47.8804 54.3935 47.2521C55.8956 46.6231 57.3084 45.9386 58.6319 45.1972C59.4428 44.7375 60.1847 44.2961 60.8738 43.8682C61.2471 44.8797 61.751 45.7869 62.3995 46.5784C63.1401 47.4538 64.0261 48.1498 65.0574 48.6664C66.1118 49.183 67.3115 49.441 68.6567 49.441C70.227 49.441 71.8197 49.2277 73.4347 48.8012C75.0491 48.397 76.5971 47.8804 78.0769 47.2521C79.5796 46.6231 80.9924 45.9386 82.3159 45.1972C82.9868 44.8167 83.6158 44.4477 84.2028 44.0896L79.1874 54.7288C78.9398 55.2453 78.7498 55.6942 78.6152 56.0754C78.4806 56.4803 78.4137 56.8283 78.4137 57.1201C78.4137 57.7037 78.6267 58.1303 79.0521 58.3997C79.4788 58.6692 79.961 58.8039 80.4994 58.8039C80.8808 58.8039 81.2954 58.7139 81.7438 58.5345C82.1928 58.3774 82.6297 58.1418 83.0558 57.8269C83.4825 57.5128 83.8748 57.1316 84.2332 56.682C84.5923 56.2555 84.8953 55.7843 85.1415 55.2677C85.5006 54.5493 85.972 53.5723 86.555 52.3374C87.1379 51.1248 87.7885 49.7666 88.5061 48.2622C89.2237 46.7355 89.975 45.1302 90.7602 43.4464C91.5677 41.7395 92.3637 40.0557 93.1489 38.3942C93.9564 36.7327 94.7186 35.1498 95.4362 33.6454C96.1767 32.1186 96.8381 30.7828 97.4211 29.6379H103.275C104.262 29.6149 105.271 29.5925 106.302 29.5702C107.357 29.5479 108.467 29.514 109.633 29.4693C110.239 29.424 110.732 29.3346 111.113 29.1999C111.495 29.0428 111.786 28.8634 111.988 28.6609C112.212 28.4361 112.369 28.2005 112.459 27.9534C112.549 27.707 112.594 27.4598 112.594 27.2127C112.594 26.7185 112.459 26.3481 112.19 26.1017C111.943 25.8322 111.585 25.6406 111.113 25.5289C110.665 25.4165 110.138 25.3495 109.532 25.3265C108.927 25.3041 108.276 25.2933 107.581 25.2933H99.7428C100.303 23.9459 101.021 22.6325 101.895 21.3522C102.771 20.0502 103.679 18.8938 104.62 17.8836C105.585 16.8735 106.527 16.0651 107.447 15.4584C108.388 14.8525 109.207 14.5492 109.902 14.5492C110.486 14.5492 110.945 14.7509 111.282 15.1558C111.64 15.56 111.82 16.233 111.82 17.1761C111.82 17.4232 111.797 17.6704 111.753 17.9175C111.73 18.1639 111.719 18.4334 111.719 18.7252C111.719 19.1748 111.909 19.5113 112.291 19.736C112.672 19.9378 113.087 20.0387 113.536 20.0387C113.715 20.0387 113.928 20.0163 114.175 19.9717C114.422 19.9046 114.668 19.8031 114.915 19.6683C115.162 19.5336 115.386 19.3657 115.588 19.1633C115.79 18.9385 115.925 18.669 115.992 18.3549C116.261 17.1876 116.395 16.1213 116.395 15.1558C116.395 14.145 116.261 13.2695 115.992 12.5288Z" fill="url(#paint1_linear_1_1293)"/>
</g>
<defs>
<linearGradient id="paint0_linear_1_1293" x1="98.0635" y1="43.8153" x2="106.743" y2="43.8153" gradientUnits="userSpaceOnUse">
<stop stop-color="#9D328B"/>
<stop offset="1" stop-color="#623AA8"/>
</linearGradient>
<linearGradient id="paint1_linear_1_1293" x1="0" y1="29.402" x2="116.395" y2="29.402" gradientUnits="userSpaceOnUse">
<stop stop-color="#9D328B"/>
<stop offset="1" stop-color="#623AA8"/>
</linearGradient>
<clipPath id="clip0_1_1293">
<rect width="117" height="58.9035" fill="white"/>
</clipPath>
</defs>
</svg>
