<svg width="1457" height="422" viewBox="0 0 1457 422" fill="none" xmlns="http://www.w3.org/2000/svg">
<path d="M413.37 87.3779L716.133 347.543" stroke="#FFEAE5" stroke-width="56.3065" stroke-linecap="square"/>
<path d="M395 60L1136 358" stroke="#FFEAE5" stroke-width="56.3065" stroke-linecap="square"/>
<path d="M357.955 77.6338L288.202 357.866" stroke="#FFEAE5" stroke-width="56.3065" stroke-linecap="square"/>
<path d="M1079 78L761 348" stroke="#FFEAE5" stroke-width="56.3065" stroke-linecap="square"/>
<path d="M1070 78L341 358" stroke="#FFEAE5" stroke-width="56.3065" stroke-linecap="square"/>
<rect x="704" y="337" width="69" height="69" rx="34.5" fill="#FF7962"/>
<rect x="727" y="186" width="23" height="23" rx="11.5" fill="#FF7962"/>
<rect x="477.157" y="140.641" width="22" height="22" rx="11" fill="#00B8D4"/>
<rect x="1108" y="325" width="76" height="76" rx="38" fill="#00B8D4"/>
<rect x="311" width="106" height="106" rx="53" fill="#FF7962"/>
<rect x="520.147" y="177.59" width="22" height="22" rx="11" fill="#AA00FF"/>
<rect x="989" y="293" width="22" height="22" rx="11" fill="#AA00FF"/>
<rect x="509" y="282" width="22" height="22" rx="11" fill="#AA00FF"/>
<rect x="240" y="321" width="101" height="101" rx="50.5" fill="#AA00FF"/>
<rect x="1026" y="29" width="101" height="101" rx="50.5" fill="#AA00FF"/>
</svg>
