<svg version="1.2" xmlns="http://www.w3.org/2000/svg" viewBox="0 0 944 422" width="944" height="422">
	<title>mid-content-svg</title>
	<style>
		.s0 { fill: none;stroke: #ffeae5;stroke-linecap: square;stroke-width: 56.3 } 
		.s1 { fill: #ff7962 } 
		.s2 { fill: #00b8d4 } 
		.s3 { fill: #aa00ff } 
	</style>
	<path id="Layer" class="s0" d="m173.4 87.4l302.7 260.1"/>
	<path id="Layer" class="s0" d="m155 60l741 298"/>
	<path id="Layer" class="s0" d="m118 77.6l-69.8 280.3"/>
	<path id="Layer" class="s0" d="m839 78l-318 270"/>
	<path id="Layer" class="s0" d="m830 78l-729 280"/>
	<path id="Layer" class="s1" d="m464 371.5c0-19.1 15.4-34.5 34.5-34.5 19.1 0 34.5 15.4 34.5 34.5 0 19.1-15.4 34.5-34.5 34.5-19.1 0-34.5-15.4-34.5-34.5z"/>
	<path id="Layer" class="s1" d="m487 197.5c0-6.4 5.1-11.5 11.5-11.5 6.4 0 11.5 5.1 11.5 11.5 0 6.4-5.1 11.5-11.5 11.5-6.4 0-11.5-5.1-11.5-11.5z"/>
	<path id="Layer" class="s2" d="m237.2 151.6c0-6 4.9-11 11-11 6 0 11 5 11 11 0 6.1-5 11-11 11-6.1 0-11-4.9-11-11z"/>
	<path id="Layer" class="s2" d="m868 363c0-21 17-38 38-38 21 0 38 17 38 38 0 21-17 38-38 38-21 0-38-17-38-38z"/>
	<path id="Layer" class="s1" d="m71 53c0-29.3 23.7-53 53-53 29.3 0 53 23.7 53 53 0 29.3-23.7 53-53 53-29.3 0-53-23.7-53-53z"/>
	<path id="Layer" class="s3" d="m280.1 188.6c0-6.1 5-11 11-11 6.1 0 11 4.9 11 11 0 6.1-4.9 11-11 11-6 0-11-4.9-11-11z"/>
	<path id="Layer" class="s3" d="m749 304c0-6.1 4.9-11 11-11 6.1 0 11 4.9 11 11 0 6.1-4.9 11-11 11-6.1 0-11-4.9-11-11z"/>
	<path id="Layer" class="s3" d="m269 293c0-6.1 4.9-11 11-11 6.1 0 11 4.9 11 11 0 6.1-4.9 11-11 11-6.1 0-11-4.9-11-11z"/>
	<path id="Layer" class="s3" d="m0 371.5c0-27.9 22.6-50.5 50.5-50.5 27.9 0 50.5 22.6 50.5 50.5 0 27.9-22.6 50.5-50.5 50.5-27.9 0-50.5-22.6-50.5-50.5z"/>
	<path id="Layer" class="s3" d="m786 79.5c0-27.9 22.6-50.5 50.5-50.5 27.9 0 50.5 22.6 50.5 50.5 0 27.9-22.6 50.5-50.5 50.5-27.9 0-50.5-22.6-50.5-50.5z"/>
</svg>