<svg width="134" height="41" viewBox="0 0 134 41" fill="none" xmlns="http://www.w3.org/2000/svg">
<g clip-path="url(#clip0_1_1955)">
<path d="M50.2039 10.8903V22.1768H38.9908V12.3477C38.9908 11.5399 38.3356 10.8846 37.5278 10.8846H33.7317V37.9034C33.7317 38.7112 34.387 39.3665 35.1948 39.3665H38.9908V26.7637H50.2096V37.8977C50.1983 38.7055 50.8423 39.3721 51.6501 39.3834H51.6727H55.4687V12.3477C55.4687 11.5399 54.8135 10.8846 54.0057 10.8846H50.2039V10.8903ZM72.472 17.9514V31.4919C72.4833 32.7233 71.8393 33.8701 70.7773 34.5027C67.806 36.22 64.7273 34.0678 64.7273 31.2433V19.4145C64.7273 18.6067 64.072 17.9514 63.2642 17.9514H59.4682V31.7291C59.4795 36.1692 63.0722 39.7619 67.5122 39.7845H69.6701C74.1158 39.7732 77.7198 36.1692 77.7311 31.7235V19.4145C77.7311 18.6067 77.0758 17.9514 76.2681 17.9514H72.472Z" fill="#19233C"/>
<path d="M129.905 39.3834H133.701V20.1997C133.701 19.3919 133.045 18.7366 132.238 18.7366H128.441V37.909C128.436 38.7168 129.085 39.3778 129.893 39.3834H129.905Z" fill="#19233C"/>
<path d="M133.781 14.8996C134.4 13.4036 133.69 11.6886 132.194 11.0689C130.698 10.4493 128.983 11.1597 128.363 12.6556C127.744 14.1516 128.454 15.8666 129.95 16.4863C131.446 17.1059 133.161 16.3956 133.781 14.8996Z" fill="#19233C"/>
<path d="M91.2997 17.9401C85.792 17.9401 81.2842 21.8774 81.2842 27.3851V30.3621C81.2842 35.8698 85.792 39.7845 91.2997 39.7845C96.8074 39.7845 101.315 35.8698 101.315 30.3621V27.3851C101.321 21.8774 96.8131 17.9401 91.2997 17.9401ZM96.0335 30.718C96.0335 33.3221 93.9039 35.0563 91.2941 35.0563C88.6843 35.0563 86.5603 33.3221 86.5603 30.718V27.001C86.5603 24.3968 88.6899 22.6626 91.2941 22.6626C93.8982 22.6626 96.0335 24.3968 96.0335 27.001V30.718Z" fill="#19233C"/>
<path d="M114.884 17.9401C113.234 17.9288 111.608 18.3017 110.122 19.0191V12.3759C110.122 11.5681 109.467 10.9129 108.659 10.9129H104.863V30.3621C104.863 35.8698 109.371 39.7845 114.878 39.7845C120.386 39.7845 124.894 35.8698 124.894 30.3621V27.3851C124.899 21.8774 120.403 17.9401 114.884 17.9401ZM119.623 30.718C119.623 33.3221 117.494 35.0564 114.884 35.0564C112.28 35.0564 110.15 33.3221 110.15 30.718V27.001C110.15 24.3968 112.28 22.6626 114.884 22.6626C117.488 22.6626 119.623 24.3968 119.623 27.001V30.718Z" fill="#19233C"/>
<path d="M17.8356 13.2233C17.8356 7.48396 15.0394 2.54116 12.9097 0.936862C12.9097 0.936862 12.7459 0.84648 12.7629 1.07809C12.5878 12.1669 6.92189 15.1721 3.80934 19.2168C-3.37609 28.5601 3.30094 38.8016 10.1135 40.694C13.9096 41.756 9.2323 38.8185 8.62787 32.6217C7.88786 25.1425 17.8356 19.4258 17.8356 13.2233Z" fill="#19233C"/>
<path d="M21.1006 17.0024C21.0554 16.9741 20.9933 16.9515 20.9537 17.025C20.8351 18.4203 19.4116 21.4029 17.6039 24.1483C11.4748 33.4464 14.9659 37.9316 16.9317 40.3437C18.0728 41.739 16.9317 40.3437 19.7788 38.9145C23.298 36.7793 25.5802 33.0849 25.9191 28.9837C26.4784 22.3745 22.5128 18.2113 21.1006 17.0024Z" fill="#19233C"/>
</g>
<defs>
<clipPath id="clip0_1_1955">
<rect width="133.292" height="40" fill="white" transform="translate(0.708008 0.919922)"/>
</clipPath>
</defs>
</svg>
