<svg width="199" height="41" viewBox="0 0 199 41" fill="none" xmlns="http://www.w3.org/2000/svg">
<g clip-path="url(#clip0_1_1953)">
<path d="M9.83653 20.7957L5.34332 25.285L0.854004 20.7957L5.34332 16.3063L9.83653 20.7957ZM20.7297 9.89468L28.4229 17.5918L32.9123 13.1024L20.7297 0.919922L8.54721 13.1024L13.0365 17.5918L20.7297 9.89468ZM36.12 16.3063L31.6307 20.7957L36.12 25.285L40.6055 20.7957L36.12 16.3063ZM20.7297 31.6966L13.0365 24.0034L8.54721 28.4889L20.7297 40.6714L32.9123 28.4889L28.4229 24.0034L20.7297 31.6966ZM20.7297 25.285L25.2191 20.7957L20.7297 16.3063L16.2404 20.7957L20.7297 25.285ZM68.1084 25.716V25.6539C68.1084 22.7257 66.555 21.2617 64.0268 20.2986C65.5802 19.4248 66.8928 18.0539 66.8928 15.5957V15.5335C66.8928 12.1083 64.1511 9.89468 59.6967 9.89468H49.5841V31.6966H59.953C64.8734 31.6966 68.1161 29.7044 68.1161 25.716H68.1084ZM62.1278 16.3956C62.1278 18.0151 60.788 18.7024 58.6715 18.7024H54.2559V14.1005H58.9899C61.0132 14.1005 62.1356 14.9083 62.1356 16.3413L62.1278 16.3956ZM63.3433 25.118C63.3433 26.7374 62.0657 27.483 59.9453 27.483H54.2559V22.6947H59.7977C62.2598 22.6947 63.3511 23.5995 63.3511 25.0636L63.3433 25.118ZM78.1861 31.6966V9.89468H73.3744V31.6966H78.1861ZM103.969 31.6966V9.89468H99.2191V23.3199L89.0055 9.89468H84.5822V31.6966H89.3161V17.8364L99.8715 31.6966H103.969ZM130.536 31.6966L121.176 9.73934H116.753L107.413 31.6966H112.303L114.303 26.8073H123.522L125.514 31.6966H130.536ZM121.817 22.5704H116.007L118.905 15.5024L121.817 22.5704ZM153.398 31.6966V9.89468H148.648V23.3199L138.431 9.89468H134.011V31.6966H138.741V17.8364L149.301 31.6966H153.398ZM178.155 28.1782L175.106 25.0947C173.394 26.6481 171.868 27.6461 169.374 27.6461C165.638 27.6461 163.052 24.5393 163.052 20.7957V20.7335C163.052 16.9976 165.701 13.9452 169.374 13.9452C171.553 13.9452 173.258 14.8772 174.951 16.4034L177.992 12.885C175.969 10.8927 173.51 9.52186 169.398 9.52186C162.703 9.52186 158.031 14.5976 158.031 20.784V20.8461C158.031 27.1063 162.796 32.0579 169.211 32.0579C173.409 32.0694 175.899 30.5743 178.139 28.1782H178.155ZM198.621 31.6966V27.4248H186.769V22.8384H197.048V18.5665H186.769V14.1626H198.45V9.8908H182.004V31.6927L198.621 31.6966Z" fill="#19233C"/>
</g>
<defs>
<clipPath id="clip0_1_1953">
<rect width="198.058" height="40" fill="white" transform="translate(0.854004 0.919922)"/>
</clipPath>
</defs>
</svg>
