<svg width="153" height="41" viewBox="0 0 153 41" fill="none" xmlns="http://www.w3.org/2000/svg">
<g clip-path="url(#clip0_1_1925)">
<mask id="mask0_1_1925" style="mask-type:luminance" maskUnits="userSpaceOnUse" x="0" y="2" width="39" height="39">
<path d="M38.0373 2.27936H0.0375977V40.2791H38.0373V2.27936Z" fill="white"/>
</mask>
<g mask="url(#mask0_1_1925)">
<g clip-path="url(#clip1_1_1925)">
<path d="M14.8871 21.018L14.5568 20.6877C14.401 20.5318 14.1486 20.5318 13.9965 20.6877C13.9222 20.7619 13.8814 20.8621 13.8814 20.966V25.6975C13.8814 25.9165 14.0596 26.0946 14.2785 26.0946H19.01C19.229 26.0946 19.4071 25.9165 19.4071 25.6975C19.4071 25.5936 19.3663 25.4897 19.2921 25.4155C19.1362 25.2596 19.1362 25.011 19.2921 24.8551L24.3242 19.8082C24.4801 19.6523 24.4801 19.4037 24.3242 19.2478L23.8641 18.7951C23.7082 18.6392 23.7082 18.3906 23.8641 18.2347C23.9383 18.1605 24.0385 18.1196 24.1424 18.1196H28.8702C29.0892 18.1196 29.2673 18.2978 29.2673 18.5167V23.2446C29.2673 23.4635 29.0892 23.6416 28.8665 23.6416C28.7626 23.6416 28.6624 23.6008 28.5882 23.5266L28.269 23.2075C28.1206 23.0516 27.8757 23.0479 27.7235 23.1963L19.229 31.6908C19.0731 31.843 18.8245 31.843 18.6686 31.6908L8.28892 21.3074C8.13306 21.1553 8.13306 20.9029 8.28521 20.747L22.658 6.37428C22.8101 6.21841 22.8101 5.96978 22.658 5.81392L19.281 2.43318C19.1251 2.28102 18.8765 2.28102 18.7206 2.43318L0.117263 21.0402C-0.0385995 21.1961 -0.0385995 21.4447 0.117263 21.6006L18.7206 40.2039C18.8765 40.3561 19.1251 40.3561 19.281 40.2039L37.8843 21.6006C38.0364 21.4447 38.0364 21.1961 37.8843 21.0402L26.9368 10.0964C26.7809 9.94057 26.5323 9.94057 26.3764 10.0964L15.4512 21.018C15.2953 21.1738 15.0467 21.1738 14.8871 21.018Z" fill="#19233C"/>
</g>
</g>
<mask id="mask1_1_1925" style="mask-type:luminance" maskUnits="userSpaceOnUse" x="44" y="2" width="108" height="39">
<path d="M151.998 2.31909H44.4384V40.3162H151.998V2.31909Z" fill="white"/>
</mask>
<g mask="url(#mask1_1_1925)">
<g clip-path="url(#clip2_1_1925)">
<path d="M120.539 27.1213C119.905 27.1213 119.36 27.3487 118.906 27.7998C118.455 28.2547 118.227 28.7915 118.227 29.4142C118.227 30.3649 118.704 31.0993 119.662 31.6287C120.706 31.9121 121.553 31.7257 122.186 31.077C122.63 30.6445 122.876 30.0517 122.869 29.4291C122.869 28.7878 122.641 28.2398 122.19 27.8036C121.761 27.3599 121.165 27.1176 120.55 27.1287L120.539 27.1213ZM83.3344 9.52394H81.6082C80.8663 9.52394 80.2623 10.1279 80.2586 10.8698V11.8317C78.4317 9.92286 76.3402 8.96843 74.0249 8.96843C71.3406 8.96843 69.1036 9.96387 67.3141 11.9548C65.5357 13.9456 64.6446 16.4361 64.6446 19.4187C64.6446 22.4572 65.5394 24.9925 67.329 27.0244C69.1335 29.019 71.4151 30.0144 74.1703 30.0107C76.3514 30.0107 78.3907 29.1234 80.2847 27.3487V29.2613C80.2847 30.1859 81.034 30.9353 81.9586 30.9353H84.9077V11.0674C84.9077 10.2137 84.2142 9.52021 83.3605 9.52021L83.3344 9.52394ZM78.9723 24.1461C77.9209 25.3205 76.5452 25.9059 74.8414 25.9022C73.2457 25.9022 71.9259 25.2982 70.8745 24.0865C69.8493 22.886 69.3385 21.3276 69.3422 19.4187C69.3422 17.6254 69.8642 16.1304 70.9156 14.9187C71.9856 13.7182 73.3016 13.1142 74.8936 13.1142C76.5676 13.1142 77.9321 13.707 78.991 14.8963C80.0461 16.108 80.5717 17.6515 80.5717 19.5157C80.5717 21.3798 80.0498 22.9233 78.9984 24.135L78.9723 24.1461ZM64.6372 12.8868V10.9146C64.6372 10.1466 64.0183 9.52394 63.2503 9.52394H61.4272C60.6591 9.52394 60.0365 10.1466 60.0365 10.9146V11.7758C58.3737 9.90795 56.2896 8.97215 53.7768 8.97215C50.9135 8.97215 48.6094 10.0496 46.8646 12.2008C45.2391 14.2327 44.4301 16.7008 44.4301 19.6051C44.4301 22.5915 45.3025 25.0782 47.0473 27.0691C48.7772 29.0339 50.9992 30.0144 53.7134 30.0144C56.0883 30.0144 58.2022 29.0824 60.0291 27.2145V29.9958C60.0291 34.1267 58.3439 36.1959 54.9698 36.1959C53.1392 36.1959 51.7523 35.5732 50.7905 34.3317C50.522 33.9775 50.317 33.5786 50.1865 33.1573C49.9591 32.5012 49.3364 32.0612 48.6393 32.065H46.9205C46.0369 32.065 45.3845 32.8964 45.6082 33.7464C46.0817 35.5621 47.0063 37.0384 48.3745 38.1756C50.0895 39.6072 52.278 40.3193 54.9363 40.3193C58.0866 40.3193 60.5585 39.2829 62.3592 37.2099C63.3137 36.1325 63.9549 34.8425 64.283 33.3437C64.4023 32.7174 64.4881 32.0873 64.5365 31.4498C64.5999 30.734 64.6297 29.9063 64.6297 28.9668V26.0811C63.3398 24.2282 62.6948 22.0099 62.691 19.4299C62.691 16.9021 63.336 14.7174 64.626 12.898L64.6372 12.8868ZM58.8099 23.9821C57.7884 25.2646 56.3977 25.9059 54.638 25.9059C52.882 25.9059 51.5025 25.2758 50.5071 24.0045C49.5937 22.8524 49.1388 21.3686 49.1388 19.5529C49.1388 17.7112 49.5974 16.2161 50.5108 15.0529C51.5212 13.7592 52.8969 13.118 54.6417 13.118C56.2784 13.118 57.6206 13.7108 58.6683 14.9001C59.701 16.0633 60.2229 17.6068 60.2229 19.5418C60.2229 21.3574 59.7494 22.8413 58.8099 24.0082V23.9821ZM102.889 9.53885V9.52021H93.3485V3.68176C93.3485 2.93238 92.7407 2.32095 91.9914 2.32095H90.1272C89.3667 2.32095 88.7478 2.93984 88.7478 3.70041V9.52021H86.783V13.8152H88.7478V30.9316H91.3762C92.4686 30.9316 93.3522 30.048 93.3522 28.9556V13.8152H98.0684C98.4375 13.1068 98.8924 12.4469 99.4255 11.8541C100.399 10.7841 101.551 10.0123 102.882 9.53885H102.889ZM126.37 2.32095C125.549 2.32095 124.848 2.61548 124.263 3.20082C123.678 3.78616 123.387 4.48334 123.383 5.28864C123.383 6.13495 123.678 6.85078 124.263 7.43612C124.852 8.02145 125.561 8.31598 126.388 8.31598C127.22 8.31598 127.921 8.02145 128.495 7.43612C129.087 6.85078 129.375 6.14241 129.375 5.31101C129.375 4.47961 129.087 3.77497 128.495 3.20455C127.939 2.62667 127.171 2.30976 126.37 2.32095ZM127.298 11.7758H125.635C124.778 11.7758 124.08 12.4693 124.08 13.3268V27.9452C124.431 28.3591 124.602 28.8475 124.602 29.4067C124.602 29.9659 124.431 30.4655 124.08 30.8794V31.6996H127.041C127.943 31.7033 128.677 30.9763 128.681 30.0741V30.0592V13.1627C128.681 12.4021 128.062 11.7833 127.302 11.7833L127.298 11.7758ZM148.922 14.5981C146.849 12.5662 144.329 11.5521 141.357 11.5521C138.397 11.5521 135.888 12.5625 133.83 14.5794C131.772 16.6002 130.743 19.0459 130.743 21.9204C130.743 24.9775 131.753 27.5165 133.77 29.5335C135.791 31.5766 138.293 32.5981 141.275 32.5981C144.288 32.5981 146.83 31.5952 148.903 29.5931C150.965 27.5724 151.994 25.0745 151.994 22.0881C151.994 19.1279 150.972 16.63 148.922 14.5981ZM145.674 26.7485C144.597 27.9042 143.158 28.4821 141.361 28.4821C139.571 28.4821 138.136 27.9005 137.044 26.7261C135.981 25.5703 135.448 23.997 135.448 22.0061C135.448 20.1495 135.996 18.6395 137.088 17.4651C138.181 16.2944 139.601 15.7091 141.365 15.7091C143.147 15.7091 144.586 16.2944 145.678 17.4651C146.756 18.6246 147.293 20.1718 147.293 22.1068C147.293 24.0418 146.752 25.589 145.674 26.7485Z" fill="#19233C"/>
<path d="M104.6 25.9469C103.657 24.9813 103.124 23.6801 103.001 22.0397H116.192C116.792 22.0397 117.284 21.5587 117.295 20.9548C117.295 17.6702 116.449 15.0977 114.76 13.2447C113.056 11.3769 110.737 10.4411 107.807 10.4411C104.902 10.4411 102.572 11.403 100.812 13.3268C99.0714 15.2766 98.199 17.8268 98.199 20.9771C98.199 24.1536 99.0975 26.7037 100.898 28.6238C102.143 29.9585 103.687 30.8235 105.518 31.2261C106.289 31.4162 107.083 31.5057 107.881 31.4908C111.158 31.5579 114.01 31.625 117.276 31.6921V31.2112C116.874 30.775 116.672 30.2493 116.672 29.6379C116.672 29.0451 116.878 28.5269 117.291 28.0869V27.5053C114.708 27.4457 108.444 27.386 108.198 27.386C106.725 27.386 105.521 26.9125 104.578 25.9618L104.6 25.9469ZM103.967 16.7456C104.25 16.3094 104.6 15.9216 104.999 15.5898C105.831 14.9336 106.86 14.5832 107.919 14.5981C110.375 14.5981 111.923 15.8247 112.56 18.2779H103.31C103.463 17.7037 103.68 17.193 103.967 16.7456Z" fill="#19233C"/>
</g>
</g>
</g>
<defs>
<clipPath id="clip0_1_1925">
<rect width="152.053" height="40" fill="white" transform="translate(0 0.919922)"/>
</clipPath>
<clipPath id="clip1_1_1925">
<rect width="37.9971" height="38.0008" fill="white" transform="matrix(1 0 0 -1 -0.00146484 40.3189)"/>
</clipPath>
<clipPath id="clip2_1_1925">
<rect width="107.56" height="37.9984" fill="white" transform="matrix(1 0 0 -1 44.4338 40.3193)"/>
</clipPath>
</defs>
</svg>
