<svg width="257" height="32" viewBox="0 0 257 32" fill="none" xmlns="http://www.w3.org/2000/svg">
<g clip-path="url(#clip0_1_1942)">
<path d="M219.93 30.8755C220.12 31.0725 219.979 31.3991 219.707 31.3991H212.914C212.827 31.3991 212.746 31.3639 212.689 31.3021L203.657 21.75L194.528 31.3034C194.471 31.3645 194.39 31.3991 194.305 31.3991H187.51C187.238 31.3991 187.099 31.0725 187.287 30.8755L199.734 17.8311L187.708 5.15592C187.521 4.95855 187.662 4.6329 187.934 4.6329H194.729C194.815 4.6329 194.896 4.66819 194.954 4.73043L203.592 13.9123L212.263 4.73001C212.321 4.66803 212.402 4.6329 212.489 4.6329H219.285C219.557 4.6329 219.696 4.95855 219.509 5.15592L207.484 17.8311L219.93 30.8755Z" fill="#19233C"/>
<path d="M155.522 31.3985C155.285 31.3985 155.092 31.2061 155.092 30.9685V5.06374C155.092 4.82625 155.285 4.63373 155.522 4.63373H181.189C181.427 4.63373 181.62 4.82625 181.62 5.06374V8.76825C181.62 9.00574 181.427 9.19826 181.189 9.19826H161.317V15.1633H173.231C173.469 15.1633 173.661 15.3558 173.661 15.5933V19.2977C173.661 19.5353 173.469 19.7278 173.231 19.7278H161.317V26.3672H181.449C181.686 26.3672 181.879 26.5597 181.879 26.7972V30.9685C181.879 31.2061 181.686 31.3985 181.449 31.3985H155.522Z" fill="#19233C"/>
<path d="M110.071 31.3985C109.834 31.3985 109.641 31.2061 109.641 30.9685V5.06374C109.641 4.82625 109.834 4.63373 110.071 4.63373H115.436C115.673 4.63373 115.865 4.82625 115.865 5.06374V30.9685C115.865 31.2061 115.673 31.3985 115.436 31.3985H110.071Z" fill="#19233C"/>
<path d="M79.5567 31.3985C79.3192 31.3985 79.1267 31.206 79.1267 30.9684V5.06368C79.1267 4.82619 79.3192 4.63367 79.5567 4.63367H104.913C105.15 4.63367 105.343 4.82619 105.343 5.06368V8.87193C105.343 9.10942 105.15 9.30194 104.913 9.30194H85.351V16.3562H96.1767C96.4143 16.3562 96.6067 16.5488 96.6067 16.7862V20.8019C96.6067 21.0394 96.4143 21.2319 96.1767 21.2319H85.351V30.9684C85.351 31.206 85.1586 31.3985 84.921 31.3985H79.5567Z" fill="#19233C"/>
<path d="M62.9121 9.40575V30.9685C62.9121 31.2061 62.7196 31.3985 62.4821 31.3985H57.1178C56.8803 31.3985 56.6878 31.2061 56.6878 30.9685V9.40575H45.2547C45.0172 9.40575 44.8247 9.21322 44.8247 8.97573V5.06374C44.8247 4.82625 45.0172 4.63373 45.2547 4.63373H74.3971C74.6346 4.63373 74.8271 4.82625 74.8271 5.06374V8.97573C74.8271 9.21322 74.6346 9.40575 74.3971 9.40575H62.9121Z" fill="#19233C"/>
<path d="M34.7291 31.3985C34.4917 31.3985 34.2991 31.2061 34.2991 30.9685V5.06374C34.2991 4.82625 34.4917 4.63373 34.7291 4.63373H40.0935C40.3309 4.63373 40.5236 4.82625 40.5236 5.06374V30.9685C40.5236 31.2061 40.3309 31.3985 40.0935 31.3985H34.7291Z" fill="#19233C"/>
<path fill-rule="evenodd" clip-rule="evenodd" d="M0.848877 5.06374C0.848877 4.82625 1.0414 4.63373 1.2789 4.63373H24.2004C27.2877 4.63373 29.7906 7.13658 29.7906 10.224V12.0106C29.7906 15.0981 27.2877 17.6009 24.2004 17.6009H24.4092C27.4966 17.6009 29.9995 20.1037 29.9995 23.1913V25.8086C29.9995 28.896 27.4966 31.3989 24.4092 31.3989H1.2789C1.04141 31.3989 0.848877 31.2064 0.848877 30.9689V5.06374ZM6.96566 8.99175H21.4532C22.8782 8.99175 24.0335 10.1469 24.0335 11.5719V12.7908C24.0335 14.2157 22.8782 15.3709 21.4532 15.3709H6.96566V8.99175ZM6.96566 19.7775H21.6088C23.0337 19.7775 24.1888 20.9326 24.1888 22.3577V23.9944C24.1888 25.4193 23.0337 26.5744 21.6088 26.5744H6.96566V19.7775Z" fill="#19233C"/>
<path d="M120.167 30.9685V5.06374C120.167 4.82625 120.36 4.63373 120.597 4.63373H124.258C124.363 4.63373 124.464 4.67215 124.543 4.74174L145.19 23.0172L145.19 5.06374C145.19 4.82625 145.383 4.63373 145.62 4.63373H150.362C150.6 4.63373 150.792 4.82625 150.792 5.06374V30.9685C150.792 31.2061 150.6 31.3985 150.362 31.3985H146.702C146.597 31.3985 146.495 31.36 146.417 31.29L125.769 12.9671V30.9685C125.769 31.2061 125.577 31.3985 125.339 31.3985H120.597C120.36 31.3985 120.167 31.2061 120.167 30.9685Z" fill="#19233C"/>
<path d="M225.104 20.6213C224.834 16.2353 226.676 11.3601 230.47 7.56587C238.719 -0.684185 255.901 0.472205 255.998 0.47885C255.951 0.546935 243.391 18.7577 228.507 20.4609C227.357 20.5924 226.22 20.6442 225.104 20.6213Z" fill="#19233C"/>
<path d="M226.847 26.2289C227.272 26.9064 227.775 27.541 228.355 28.1221C233.449 33.2147 242.651 32.2683 248.911 26.0079C257.185 17.7344 255.997 0.478699 255.997 0.478699C255.952 0.580946 246.95 20.7628 232.639 25.165C230.698 25.7626 228.75 26.1107 226.847 26.2289Z" fill="#19233C"/>
</g>
<defs>
<clipPath id="clip0_1_1942">
<rect width="255.209" height="31" fill="white" transform="translate(0.848877 0.419922)"/>
</clipPath>
</defs>
</svg>
