<svg width="38" height="38" viewBox="0 0 38 38" fill="none" xmlns="http://www.w3.org/2000/svg">
<path d="M23.75 7.125H14.25L10.732 1.84656C10.2051 1.05687 10.7691 0 11.7191 0H26.2809C27.2309 0 27.7949 1.05687 27.268 1.84656L23.75 7.125ZM14.25 9.5H23.75C24.032 9.68555 24.3512 9.89336 24.648 10.1234C28.923 12.8176 38 18.6215 38 30.875C38 34.8086 34.8086 38 30.875 38H7.125C3.18992 38 0 34.8086 0 30.875C0 18.6215 9.07695 12.8176 13.2852 10.1234C13.6488 9.89336 13.968 9.68555 14.25 9.5ZM20.4918 16.625C20.4918 15.8012 19.8238 15.1332 18.9332 15.1332C18.1762 15.1332 17.5082 15.8012 17.5082 16.625V17.0703C17.0926 17.1594 16.6324 17.2855 16.3281 17.4488C15.2223 17.9535 14.2574 18.8887 14.0199 20.2469C13.8863 21.0039 13.9605 21.7387 14.2723 22.3992C14.584 23.0523 15.0664 23.5125 15.5563 23.8465C16.4172 24.4328 17.5527 24.7742 18.4211 25.034L18.5844 25.0785C19.6234 25.3977 20.3211 25.6277 20.759 25.9469C20.9445 26.0805 21.0113 26.1844 21.0336 26.2512C21.0633 26.3105 21.1078 26.4441 21.0559 26.741C21.0113 27.0008 20.8703 27.2234 20.4621 27.3941C20.0094 27.5871 19.2746 27.6836 18.3246 27.5352C17.8793 27.4609 17.0852 27.1938 16.3801 26.9563C16.2168 26.8969 16.0535 26.8449 15.9051 26.793C15.1258 26.5332 14.2871 26.9563 14.0273 27.7355C13.7676 28.5148 14.1906 29.3535 14.9699 29.5465C15.059 29.643 15.1703 29.6801 15.2965 29.7246C15.816 29.925 16.8031 30.2367 17.5082 30.4V30.875C17.5082 31.6988 18.1762 32.3668 18.9332 32.3668C19.8238 32.3668 20.4918 31.6988 20.4918 30.875V30.4668C20.8852 30.3926 21.2711 30.2145 21.6273 30.1254C22.8 29.6281 23.7352 28.6633 23.9801 27.2531C24.1137 26.4813 24.0543 25.7391 23.7574 25.0637C23.468 24.3957 23.0004 23.9059 22.5031 23.5496C21.6051 22.8891 20.4027 22.5328 19.5047 22.2582L19.3785 22.2434C18.3914 21.9242 17.6789 21.7016 17.2262 21.3898C17.0332 21.2563 16.9738 21.1672 16.959 21.1301C16.9441 21.1004 16.8996 21.0113 16.9441 20.759C16.9738 20.6105 17.0852 20.3656 17.5527 20.1578C17.9684 19.9426 18.7699 19.8238 19.6754 19.898C20.002 20.0168 21.0039 20.2098 21.2934 20.284C22.0801 20.4992 22.8965 20.0242 23.1043 19.2301C23.3195 18.4434 22.8445 17.627 22.0504 17.4191C21.7238 17.3301 20.9816 17.1816 20.4918 17.0926V16.625Z" fill="#5D3BAD"/>
</svg>
