<svg width="39" height="38" viewBox="0 0 39 38" fill="none" xmlns="http://www.w3.org/2000/svg">
<g clip-path="url(#clip0_1_1337)">
<path d="M9.00024 7.64001H40.0002V9.64001H9.00024V7.64001Z" fill="#5D3BAD"/>
<path d="M14.9169 9.64001V25.64H34.0836V9.64001H14.9169ZM13.0002 7.64001H36.0002V26.64C36.0002 26.9052 35.8993 27.1596 35.7196 27.3471C35.5398 27.5347 35.2961 27.64 35.0419 27.64H13.9586C13.7044 27.64 13.4607 27.5347 13.2809 27.3471C13.1012 27.1596 13.0002 26.9052 13.0002 26.64V7.64001Z" fill="#5D3BAD"/>
<path d="M18.3793 34.64H16.0002L20.6595 25.64L22.4448 26.7894L18.3793 34.64ZM33.0002 34.64H30.6212L26.5557 26.7894L28.341 25.64L33.0002 34.64Z" fill="#5D3BAD"/>
<path d="M7.43921 19.4926C8.40865 19.4926 9.33838 19.8777 10.0239 20.5632C10.7094 21.2487 11.0945 22.1784 11.0945 23.1478C11.0945 24.1173 10.7094 25.047 10.0239 25.7325C9.33838 26.418 8.40865 26.8031 7.43921 26.8031C6.46977 26.8031 5.54004 26.418 4.85454 25.7325C4.16904 25.047 3.78394 24.1173 3.78394 23.1478C3.78394 22.1784 4.16904 21.2487 4.85454 20.5632C5.54004 19.8777 6.46977 19.4926 7.43921 19.4926ZM7.43921 28.6307C11.4783 28.6307 14.7498 30.2665 14.7498 32.286V34.1136H0.128662V32.286C0.128662 30.2665 3.40013 28.6307 7.43921 28.6307Z" fill="#5D3BAD"/>
</g>
<defs>
<clipPath id="clip0_1_1337">
<rect width="38" height="38" fill="white" transform="translate(0.666748)"/>
</clipPath>
</defs>
</svg>
