<svg width="38" height="38" viewBox="0 0 38 38" fill="none" xmlns="http://www.w3.org/2000/svg">
<path d="M18.5017 0.692871C17.5731 0.692871 16.6595 1.71807 16.6595 3.17578C16.6595 4.63349 17.5731 5.65869 18.5017 5.65869C19.4303 5.65869 20.3438 4.63349 20.3438 3.17578C20.3438 1.71807 19.4303 0.692871 18.5017 0.692871ZM10.1758 0.93115L8.88649 1.57591C10.0953 3.99354 13.0009 6.12604 15.4692 7.53825L16.6062 22.3182H17.7808V14.0685H19.2225V22.3182H20.3972L21.5341 7.53825C24.0024 6.12604 26.9081 3.99354 28.1169 1.57591L26.8275 0.93115C25.2328 3.32596 23.232 4.8676 21.1141 5.55817C20.5289 6.48205 19.603 7.10038 18.5017 7.10038C17.4004 7.10038 16.4745 6.48205 15.8893 5.55809C13.7713 4.86768 11.7705 3.32596 10.1758 0.93115ZM11.5335 23.7599V31.4489H0V37.6962H37.0033V35.2934H25.4698V23.7599H11.5335Z" fill="#5D3BAD"/>
</svg>
